<?xml version="1.0" encoding="UTF-8"?>
<svg id="Layer_2" data-name="Layer 2" xmlns="http://www.w3.org/2000/svg" viewBox="0 0 199.09 140.85">
  <defs>
    <style>
      .cls-1 {
        fill: #fcf49d;
        stroke: #48673c;
        stroke-miterlimit: 10;
        stroke-width: 2px;
      }

      .cls-2 {
        fill: #4a673d;
        font-family: KirangHaerang-Regular, 'Kirang Haerang';
        font-size: 15px;
      }

      .cls-3 {
        fill: #506741;
      }

      .cls-3, .cls-4, .cls-5, .cls-6, .cls-7 {
        stroke-width: 0px;
      }

      .cls-4 {
        fill: #7c2346;
      }

      .cls-5 {
        fill: #513921;
      }

      .cls-6 {
        fill: #cb7e95;
      }

      .cls-7 {
        fill: #b26f85;
      }
    </style>
  </defs>
  <g id="Layer_1-2" data-name="Layer 1">
    <g id="Layer_1-2" data-name="Layer 1-2">
      <circle class="cls-4" cx="38.96" cy="60.67" r="38.96"/>
      <g>
        <path class="cls-5" d="M72.04,35.22l-9.27,3.6s-13.97,2.2-20.46,12.01c-4.12,6.23-4.15,12.97-1.69,24.52s10.56,24.36,20.06,28.01c14.84,5.69,17.25,6.43,21.2,7.76,5.25,1.77,19.42,10.48,18.93,10.22,0,0,9.84-17.22,12.68-19.11s13.63-11.17,15.9-17.6c2.27-6.43,6.81-21.2,0-34.82-6.81-13.63-17.6-18.74-25.17-18.36-7.58.36-30.1,1.5-32.18,3.77h0Z"/>
        <path class="cls-6" d="M72.98,37l-8.65,3.35s-13.03,2.06-19.08,11.2c-3.85,5.81-3.87,12.1-1.57,22.87,2.29,10.77,9.85,22.72,18.71,26.12,13.84,5.31,16.09,6,19.77,7.24,4.89,1.65,18.11,9.77,17.65,9.53,0,0,9.18-16.06,11.83-17.83s12.71-10.41,14.83-16.41c2.12-6,6.35-19.77,0-32.48-6.35-12.71-16.41-17.47-23.47-17.12s-28.08,1.41-30.02,3.53Z"/>
        <path class="cls-7" d="M103.54,33.45s11.46,2.65,13.45,22.7c1.98,20.06-6.17,40.34-6.72,41.44s.16,2.87.16,2.87c0,0,3.86-2.73,6.54-5.12,3.43-3.05,8.45-7.47,10.82-15.15,1.41-4.57,1.97-12.24,2.03-16.39.09-5.97-3.53-14.59-7.18-19.41-2.6-3.44-8.74-9.24-13.83-10.34-1.29-.28-5.27-.6-5.27-.6Z"/>
        <path class="cls-3" d="M45.35,13.2s7.98,2.98,14.58,16.93c6.6,13.95,7.56,17.99,7.56,17.99l20.65-5.22s-5.11-20.55,7.67-39.07l-7.03-1.81s-6.92,13.41-7.13,17.89c-.21,4.47-4.05-10.08-1.92-19.91,0,0-5.96,0-6.49.85s-.21,19.59-.53,19.48-6.49-18.42-6.49-18.42c0,0-4.58.85-4.79,1.6s5.75,23,5.22,23.74c-.53.75-10.75-20.12-15.65-17.67-4.91,2.45-5.65,3.62-5.65,3.62Z"/>
        <path class="cls-5" d="M48,62.02c6.57.48,21.25,2.31,34.32-7.97,0,0,2.41-.31-.55,1.78-2.97,2.09-10.35,6.39-16.54,7.49-11.48,2.04-17.23-.29-17.23-.29,0,0-2.15-.71,0-1.01Z"/>
        <path class="cls-5" d="M97.78,67.02c-5.16,3.38-16.32,11.58-31.99,8.45,0,0-2.13.81,1.31,1.31,3.44.5,11.56.95,17.17-.87,10.4-3.37,13.99-8,13.99-8,0,0,1.42-1.59-.48-.89Z"/>
        <path class="cls-5" d="M62.73,89.74c6.59.06,21.35.95,33.74-10.15,0,0,2.39-.47-.44,1.81s-9.92,7.04-16.03,8.54c-11.33,2.77-17.21.81-17.21.81,0,0-2.18-.57-.06-1.01Z"/>
        <path class="cls-5" d="M109.9,90.77c-5.32,3.46-16.82,11.85-32.79,8.89,0,0-2.19.84,1.32,1.3,3.51.46,11.8.82,17.56-1.08,10.67-3.52,14.39-8.22,14.39-8.22,0,0,1.48-1.62-.48-.89Z"/>
      </g>
    </g>
    <rect class="cls-1" x="85.97" y="46.78" width="112.12" height="52.6" rx="12" ry="12"/>
    <text class="cls-2" transform="translate(101.55 61.05)"><tspan x="0" y="0">Want to learn </tspan><tspan x="-4.34" y="16">more about food </tspan><tspan x="19.36" y="32">waste? </tspan></text>
  </g>
</svg>