<?xml version="1.0" encoding="UTF-8"?>
<svg id="Layer_2" data-name="Layer 2" xmlns="http://www.w3.org/2000/svg" viewBox="0 0 320.44 263.63">
  <defs>
    <style>
      .cls-1 {
        fill: #7c2346;
      }

      .cls-2 {
        stroke: #48673c;
        stroke-miterlimit: 10;
        stroke-width: 3px;
      }

      .cls-3 {
        fill: #eebc45;
      }

      .cls-4 {
        fill: #513921;
      }

      .cls-5 {
        fill: #f3d268;
      }

      .cls-6 {
        fill: #4a673d;
        font-family: KirangHaerang-Regular, 'Kirang Haerang';
        font-size: 32.29px;
      }

      .cls-7 {
        fill: #506741;
      }

      .cls-8 {
        fill: #fff;
        isolation: isolate;
        opacity: .67;
      }
    </style>
  </defs>
  <g id="Layer_1-2" data-name="Layer 1">
    <g id="Layer_1-2" data-name="Layer 1-2">
      <circle class="cls-1" cx="69.9" cy="83.4" r="69.9"/>
      <g>
        <path class="cls-4" d="M131.86,51.57c5.11.11,9.26.09,9.92-.02,1.67-.29,23.68-11.14,23.68-11.14,0,0,25.83,5.69,40.19,16.83,7.98,6.21,13.58,11.84,7.46,33.05-5.71,19.77-15.05,47.65-15.05,48.76s.22,18.08-4.47,29.53c-5.13,12.58-17.58,27.09-37.64,19.95-8.88-3.16-16.99-4.41-24.11-4.27h-2.26c-7.14-.13-15.25,1.11-24.11,4.27-20.04,7.14-32.49-7.37-37.64-19.95-4.68-11.46-4.47-28.42-4.47-29.53s-9.35-29.01-15.05-48.76c-6.12-21.21-.52-26.84,7.46-33.05,14.35-11.16,40.19-16.83,40.19-16.83,0,0,22.01,10.87,23.68,11.14.66.11,4.81.13,9.92.02h2.3Z"/>
        <path class="cls-3" d="M131.76,57.53c4.66.11,8.45.09,9.06-.02,1.52-.25,21.62-10.23,21.62-10.23,0,0,23.59,5.2,36.69,15.45,7.28,5.69,12.4,10.85,6.82,30.3-5.2,18.12-13.74,43.7-13.74,44.73s.2,16.58-4.07,27.09c-4.68,11.54-16.06,24.85-34.36,18.3-8.09-2.91-15.5-4.04-22.01-3.93h-2.06c-6.51-.13-13.92,1.02-22.01,3.93-18.3,6.55-29.67-6.76-34.36-18.3-4.27-10.51-4.07-26.07-4.07-27.09s-8.52-26.61-13.74-44.73c-5.6-19.45-.47-24.61,6.82-30.3,13.1-10.23,36.69-15.45,36.69-15.45,0,0,20.09,9.97,21.62,10.23.61.11,4.4.13,9.06.02,0,0,2.06,0,2.06,0Z"/>
        <path class="cls-5" d="M166.2,184.74c2.74-.36,5.56-1.08,10.53-4.27,4.79-3.07,9.24-9.67,11.07-14.51,4.68-12.43,4.27-22.57,4.86-28.35.29-2.83.65-1.83,2.57-9.81,1.85-7.73,5.42-16.74,6.89-22.14,1.76-6.48,7.23-18.03,5.97-29.84-.86-8.11-10.14-14.77-17.73-18.6-5.85-2.94-13.35-6.03-21.62-8.29,0,0,14.96,46.25,10.76,69.29-.63,3.41-11.52,53.95-18.32,62.36-2.44,3.01-5.17,2.35-5.17,3.19-.04,0,3.79,1.79,10.17.97Z"/>
        <path class="cls-7" d="M86.72,26.99s2.46,18.39,19.39,25.48c18.37,7.7,18.96,6.66,23.59,6.8,4.63.14,41.39-5.06,44.73-6.37,0,0-14.19-3.48-16.94-2.6-2.74.86,3.48-2.6,3.48-2.6l10.14-.57s11.43-12.88,12.59-18.96c0,0-21.85,13.9-24.45,13.9s2.31-7.68,3.91-9.4c0,0-14.77,3.91-19.68,7.97,0,0-1.88,1,1.6-6.94,3.48-7.97,19.25-26.62,19.68-29.39.43-2.74-8.4-4.77-12.74-4.2s-4.34-.29-5.94,1.74c-1.6,2.03-22.73,28.81-22.28,36.47,0,0,.43,4.34-5.51-1.17-5.94-5.51-11.28-11.57-11.72-10.57-.43,1-.72,17.37-2.03,16.51-1.31-.86-12.88-12.68-13.9-13.44-1.04-.77-3.93-2.66-3.93-2.66h0Z"/>
        <path class="cls-8" d="M187.43,71.11s-.54,14.17,3.75,15.5c4.27,1.35,4.54-4.81,4.54-6.69s-3.5-10.69-4.16-10.42c-.65.29-4.2-3.16-4.13,1.61Z"/>
      </g>
    </g>
    <rect class="cls-2" x="130.72" y="86.8" width="188.22" height="88.31" rx="12" ry="12"/>
    <text class="cls-6" transform="translate(180.49 124.04)"><tspan x="0" y="0">Further </tspan><tspan x="22.17" y="28.71">info</tspan></text>
  </g>
</svg>