<?xml version="1.0" encoding="UTF-8"?>
<svg id="Layer_2" data-name="Layer 2" xmlns="http://www.w3.org/2000/svg" viewBox="0 0 179.28 146.94">
  <defs>
    <style>
      .cls-1 {
        fill: #4a673d;
        font-family: KirangHaerang-Regular, 'Kirang Haerang';
        font-size: 15px;
      }

      .cls-2 {
        fill: #fff;
        isolation: isolate;
        opacity: .67;
      }

      .cls-2, .cls-3, .cls-4, .cls-5, .cls-6, .cls-7 {
        stroke-width: 0px;
      }

      .cls-8 {
        fill: #ffefba;
        stroke: #48673c;
        stroke-miterlimit: 10;
        stroke-width: 3px;
      }

      .cls-3 {
        fill: #f3d268;
      }

      .cls-4 {
        fill: #506741;
      }

      .cls-5 {
        fill: #7c2346;
      }

      .cls-6 {
        fill: #513921;
      }

      .cls-7 {
        fill: #eebc45;
      }
    </style>
  </defs>
  <g id="Layer_1-2" data-name="Layer 1">
    <g id="Layer_1-2" data-name="Layer 1-2">
      <circle class="cls-5" cx="38.96" cy="46.48" r="38.96"/>
      <g>
        <path class="cls-6" d="M73.5,28.74c2.85.06,5.16.05,5.53-.01.93-.16,13.2-6.21,13.2-6.21,0,0,14.4,3.17,22.4,9.38,4.45,3.46,7.57,6.6,4.16,18.42-3.18,11.02-8.39,26.56-8.39,27.18s.12,10.08-2.49,16.46c-2.86,7.01-9.8,15.1-20.98,11.12-4.95-1.76-9.47-2.46-13.44-2.38h-1.26c-3.98-.07-8.5.62-13.44,2.38-11.17,3.98-18.11-4.11-20.98-11.12-2.61-6.39-2.49-15.84-2.49-16.46s-5.21-16.17-8.39-27.18c-3.41-11.82-.29-14.96,4.16-18.42,8-6.22,22.4-9.38,22.4-9.38,0,0,12.27,6.06,13.2,6.21.37.06,2.68.07,5.53.01h1.28Z"/>
        <path class="cls-7" d="M73.44,32.06c2.6.06,4.71.05,5.05,0,.85-.14,12.05-5.7,12.05-5.7,0,0,13.15,2.9,20.45,8.61,4.06,3.17,6.91,6.05,3.8,16.89-2.9,10.1-7.66,24.36-7.66,24.93s.11,9.24-2.27,15.1c-2.61,6.43-8.95,13.85-19.15,10.2-4.51-1.62-8.64-2.25-12.27-2.19h-1.15c-3.63-.07-7.76.57-12.27,2.19-10.2,3.65-16.54-3.77-19.15-10.2-2.38-5.86-2.27-14.53-2.27-15.1s-4.75-14.83-7.66-24.93c-3.12-10.84-.26-13.72,3.8-16.89,7.3-5.7,20.45-8.61,20.45-8.61,0,0,11.2,5.56,12.05,5.7.34.06,2.45.07,5.05,0,0,0,1.15,0,1.15,0Z"/>
        <path class="cls-3" d="M92.64,102.97c1.53-.2,3.1-.6,5.87-2.38,2.67-1.71,5.15-5.39,6.17-8.09,2.61-6.93,2.38-12.58,2.71-15.8.16-1.58.36-1.02,1.43-5.47,1.03-4.31,3.02-9.33,3.84-12.34.98-3.61,4.03-10.05,3.33-16.63-.48-4.52-5.65-8.23-9.88-10.37-3.26-1.64-7.44-3.36-12.05-4.62,0,0,8.34,25.78,6,38.62-.35,1.9-6.42,30.07-10.21,34.76-1.36,1.68-2.88,1.31-2.88,1.78-.02,0,2.11,1,5.67.54Z"/>
        <path class="cls-4" d="M48.34,15.04s1.37,10.25,10.81,14.2c10.24,4.29,10.57,3.71,13.15,3.79,2.58.08,23.07-2.82,24.93-3.55,0,0-7.91-1.94-9.44-1.45-1.53.48,1.94-1.45,1.94-1.45l5.65-.32s6.37-7.18,7.02-10.57c0,0-12.18,7.75-13.63,7.75s1.29-4.28,2.18-5.24c0,0-8.23,2.18-10.97,4.44,0,0-1.05.56.89-3.87,1.94-4.44,10.73-14.84,10.97-16.38.24-1.53-4.68-2.66-7.1-2.34s-2.42-.16-3.31.97c-.89,1.13-12.67,16.06-12.42,20.33,0,0,.24,2.42-3.07-.65s-6.29-6.45-6.53-5.89c-.24.56-.4,9.68-1.13,9.2-.73-.48-7.18-7.07-7.75-7.49-.58-.43-2.19-1.48-2.19-1.48h0Z"/>
        <path class="cls-2" d="M104.47,39.63s-.3,7.9,2.09,8.64c2.38.75,2.53-2.68,2.53-3.73s-1.95-5.96-2.32-5.81c-.36.16-2.34-1.76-2.3.9Z"/>
      </g>
    </g>
    <rect class="cls-8" x="72.86" y="48.38" width="104.92" height="49.22" rx="12" ry="12"/>
    <text class="cls-1" transform="translate(97.27 67.14)"><tspan x="0" y="0">About the </tspan><tspan x="5.67" y="16">website </tspan></text>
  </g>
</svg>