<?xml version="1.0" encoding="UTF-8"?>
<svg id="Layer_2" data-name="Layer 2" xmlns="http://www.w3.org/2000/svg" viewBox="0 0 169.49 141.84">
  <defs>
    <style>
      .cls-1 {
        fill: #fcf49d;
        stroke: #48673c;
        stroke-miterlimit: 10;
        stroke-width: 2px;
      }

      .cls-2 {
        fill: #4a673d;
        font-family: KirangHaerang-Regular, 'Kirang Haerang';
        font-size: 15px;
      }

      .cls-3 {
        fill: #f9a978;
      }

      .cls-3, .cls-4, .cls-5, .cls-6, .cls-7 {
        stroke-width: 0px;
      }

      .cls-4 {
        fill: #506741;
      }

      .cls-5 {
        fill: #7c2346;
      }

      .cls-6 {
        fill: #513921;
      }

      .cls-7 {
        fill: #e7935e;
      }
    </style>
  </defs>
  <g id="Layer_1-2" data-name="Layer 1">
    <g id="Layer_1-2" data-name="Layer 1-2">
      <circle class="cls-5" cx="68.12" cy="83.53" r="38.96"/>
      <g>
        <path class="cls-6" d="M76.53,126.28s-14.1-47.49,16.62-82.84c3.31-3.8,7.78-9.58,15.2-11.92,9-2.84,38.67,17.14,41.16,19.89,3.27,3.59,4.41,7.58,2.49,15-1.38,5.35-11.6,38.05-56.08,55.18,0,0-15.85,4.7-19.39,4.7h0Z"/>
        <path class="cls-7" d="M79.32,122.55s-13.03-44.25,15.36-77.19c3.06-3.55,7.19-8.92,14.04-11.1,8.31-2.65,35.72,15.97,38.03,18.53,3.02,3.35,4.07,7.07,2.29,13.97-1.28,4.98-10.72,35.45-51.81,51.41,0,0-14.63,4.38-17.91,4.38Z"/>
        <path class="cls-6" d="M91.98,47.19s9.17,9.71,25.23,14.15l-1.36,2.25s-26.33-10.48-24.51-14.87c1.82-4.38.64-1.53.64-1.53Z"/>
        <path class="cls-6" d="M82.8,60.96c1.72,1.76,4.08,6.19,19.62,10.36l-1.54,2.21s-16.95-6.25-17.95-9.94c-1.05-3.87-.13-2.63-.13-2.63Z"/>
        <path class="cls-4" d="M125.23,35.91s3.82-23.3,5.15-32.65c.27-1.92,5.48-6.26,7.73,0l-3.78,25.95s9.02-14.36,12.72-20.28c1.05-1.67,3.84-1.4,4.98-.86,1.11.53,3.17,2.71,2.4,4.29-3.74,7.81-12.2,21.52-12.2,21.52,0,0,14.8-11.72,21.14-16.06,1.05-.72,3.81-.46,4.69.46.75.79,2.16,3.88.98,4.9-10.29,9.02-29.39,21.14-29.39,21.14l-14.42-8.41h0Z"/>
        <path class="cls-6" d="M129.2,99.56c-12.53-3.32-16.58-3.26-26.22-14.39l2.05-2.02s6.54,11.04,25.34,14.61"/>
        <path class="cls-6" d="M98.67,101.85s11.81,9.2,15.69,8.66c2.72-.38-2.4,1.93-2.4,1.93,0,0-14.45-6.85-14.16-8.22s.88-2.37.88-2.37h0Z"/>
      </g>
    </g>
    <path class="cls-3" d="M143.3,50.65c-1.74-2.1,5,1.45,6.31,7.38,1.15,5.23-1.45,11.66-2.24,14.31s-1.04,7.7-19.49,27.22c-17.13,18.12-44.31,22.41-48.11,22.93-.06,0-.08-.07-.02-.09,3.41-1.25,26.78-10.59,49.13-39.25,17.92-22.97,17.37-28.94,14.42-32.5Z"/>
    <path class="cls-6" d="M98.67,101.85s11.81,9.2,15.69,8.66c2.72-.38-2.4,1.93-2.4,1.93,0,0-14.45-6.85-14.16-8.22s.88-2.37.88-2.37h0Z"/>
    <path class="cls-6" d="M129.2,99.56c-12.53-3.32-16.58-3.26-26.22-14.39l2.05-2.02s6.54,11.04,25.34,14.61"/>
    <rect class="cls-1" x="1" y="43.75" width="104.92" height="49.22" rx="12" ry="12"/>
    <text class="cls-2" transform="translate(6.55 62.03)"><tspan x="0" y="0">Got scraps for a </tspan><tspan x="27.75" y="16" xml:space="preserve">recipe?  </tspan></text>
  </g>
</svg>