<?xml version="1.0" encoding="UTF-8"?>
<svg id="Layer_2" data-name="Layer 2" xmlns="http://www.w3.org/2000/svg" viewBox="0 0 317.82 270.76">
  <defs>
    <style>
      .cls-1 {
        fill: #4a673d;
        font-family: KirangHaerang-Regular, 'Kirang Haerang';
        font-size: 60px;
      }

      .cls-2 {
        fill: #ffefba;
        stroke: #48673c;
        stroke-miterlimit: 10;
        stroke-width: 4px;
      }

      .cls-3 {
        fill: #f8a878;
      }

      .cls-3, .cls-4, .cls-5, .cls-6, .cls-7 {
        stroke-width: 0px;
      }

      .cls-4 {
        fill: #506741;
      }

      .cls-5 {
        fill: #7c2346;
      }

      .cls-6 {
        fill: #513921;
      }

      .cls-7 {
        fill: #e6925e;
      }
    </style>
  </defs>
  <g id="Layer_1-2" data-name="Layer 1">
    <g id="Layer_1-2" data-name="Layer 1-2">
      <circle class="cls-5" cx="127.81" cy="156.56" r="73.02"/>
      <g>
        <path class="cls-6" d="M143.57,236.69s-26.43-89.01,31.15-155.27c6.2-7.12,14.58-17.96,28.49-22.34,16.87-5.32,72.48,32.13,77.15,37.28,6.13,6.73,8.27,14.21,4.67,28.12-2.59,10.03-21.74,71.32-105.11,103.43,0,0-29.71,8.81-36.34,8.81v-.02Z"/>
        <path class="cls-7" d="M148.8,229.7s-24.42-82.94,28.79-144.68c5.74-6.65,13.48-16.72,26.32-20.81,15.58-4.97,66.95,29.93,71.28,34.73,5.66,6.28,7.63,13.25,4.29,26.18-2.4,9.33-20.09,66.45-97.11,96.36,0,0-27.42,8.21-33.57,8.21Z"/>
        <path class="cls-6" d="M172.53,88.45s17.19,18.2,47.29,26.52l-2.55,4.22s-49.35-19.64-45.94-27.87c3.41-8.21,1.2-2.87,1.2-2.87Z"/>
        <path class="cls-6" d="M155.32,114.26c3.22,3.3,7.65,11.6,36.77,19.42l-2.89,4.14s-31.77-11.71-33.64-18.63c-1.97-7.25-.24-4.93-.24-4.93Z"/>
        <path class="cls-4" d="M234.85,67.31s7.16-43.67,9.65-61.2c.51-3.6,10.27-11.73,14.49,0l-7.09,48.64s16.91-26.92,23.84-38.01c1.97-3.13,7.2-2.62,9.33-1.61,2.08.99,5.94,5.08,4.5,8.04-7.01,14.64-22.87,40.34-22.87,40.34,0,0,27.74-21.97,39.62-30.1,1.97-1.35,7.14-.86,8.79.86,1.41,1.48,4.05,7.27,1.84,9.18-19.29,16.91-55.09,39.62-55.09,39.62l-27.03-15.76h0Z"/>
        <path class="cls-6" d="M242.29,186.61c-23.49-6.22-31.08-6.11-49.15-26.97l3.84-3.79s12.26,20.69,47.5,27.38"/>
        <path class="cls-6" d="M185.07,190.9s22.14,17.24,29.41,16.23c5.1-.71-4.5,3.62-4.5,3.62,0,0-27.08-12.84-26.54-15.41s1.65-4.44,1.65-4.44h-.02Z"/>
      </g>
    </g>
    <path class="cls-3" d="M268.71,94.94c-3.27-3.94,9.37,2.71,11.82,13.83,2.16,9.81-2.72,21.86-4.2,26.81-1.47,4.95-1.95,14.44-36.53,51.02-32.1,33.97-83.04,42.01-90.17,42.98-.11.01-.14-.14-.04-.17,6.4-2.35,50.19-19.86,92.09-73.57,33.59-43.06,32.56-54.24,27.03-60.91Z"/>
    <path class="cls-6" d="M185.07,190.9s22.14,17.24,29.41,16.23c5.1-.71-4.5,3.62-4.5,3.62,0,0-27.08-12.84-26.54-15.41s1.65-4.44,1.65-4.44h-.02Z"/>
    <path class="cls-6" d="M224.44,176.75c-23.49-6.22-31.08-6.11-49.15-26.97l3.84-3.79s12.26,20.69,47.5,27.38"/>
    <rect class="cls-2" x="2" y="82.01" width="196.65" height="92.26" rx="12" ry="12"/>
    <text class="cls-1" transform="translate(53.32 142.42)"><tspan x="0" y="0" xml:space="preserve">Info  </tspan></text>
  </g>
</svg>