<?xml version="1.0" encoding="UTF-8"?>
<svg id="Layer_2" data-name="Layer 2" xmlns="http://www.w3.org/2000/svg" viewBox="0 0 332.92 196.64">
  <defs>
    <style>
      .cls-1 {
        fill: #7c2346;
      }

      .cls-2 {
        fill: #4a673d;
        font-family: KirangHaerang-Regular, 'Kirang Haerang';
      }

      .cls-3 {
        fill: #b16f84;
      }

      .cls-4 {
        font-size: 27.5px;
      }

      .cls-5 {
        font-size: 36px;
      }

      .cls-6 {
        fill: #513921;
      }

      .cls-7 {
        fill: #506741;
      }

      .cls-8 {
        fill: #ffefba;
        stroke: #48673c;
        stroke-miterlimit: 10;
        stroke-width: 2px;
      }

      .cls-9 {
        fill: #ca7e94;
      }
    </style>
  </defs>
  <g id="Layer_1-2" data-name="Layer 1">
    <g id="Layer_1-2" data-name="Layer 1-2">
      <circle class="cls-1" cx="63.13" cy="98.31" r="63.13"/>
      <g>
        <path class="cls-6" d="M116.74,57.07l-15.02,5.83s-22.64,3.57-33.15,19.46c-6.68,10.1-6.72,21.02-2.74,39.73s17.11,39.47,32.51,45.39c24.05,9.22,27.95,10.42,34.35,12.57,8.51,2.87,31.47,16.98,30.68,16.56,0,0,15.95-27.9,20.55-30.97,4.6-3.06,22.09-18.1,25.77-28.52,3.68-10.42,11.04-34.35,0-56.42-11.04-22.09-28.52-30.37-40.79-29.75-12.28.58-48.78,2.43-52.15,6.11h0Z"/>
        <path class="cls-9" d="M118.26,59.96l-14.02,5.43s-21.11,3.34-30.92,18.15c-6.24,9.41-6.27,19.61-2.54,37.06,3.71,17.45,15.96,36.82,30.32,42.33,22.43,8.6,26.07,9.72,32.04,11.73,7.92,2.67,29.35,15.83,28.6,15.44,0,0,14.88-26.02,19.17-28.89s20.6-16.87,24.03-26.59c3.44-9.72,10.29-32.04,0-52.63-10.29-20.6-26.59-28.31-38.03-27.74s-45.5,2.28-48.65,5.72Z"/>
        <path class="cls-3" d="M167.78,54.2s18.57,4.29,21.8,36.78c3.21,32.51-10,65.37-10.89,67.15s.26,4.65.26,4.65c0,0,6.25-4.42,10.6-8.3,5.56-4.94,13.69-12.1,17.53-24.55,2.28-7.41,3.19-19.83,3.29-26.56.15-9.67-5.72-23.64-11.63-31.45-4.21-5.57-14.16-14.97-22.41-16.76-2.09-.45-8.54-.97-8.54-.97Z"/>
        <path class="cls-7" d="M73.49,21.39s12.93,4.83,23.63,27.43c10.69,22.61,12.25,29.15,12.25,29.15l33.46-8.46s-8.28-33.3,12.43-63.31l-11.39-2.93s-11.21,21.73-11.55,28.99c-.34,7.24-6.56-16.33-3.11-32.26,0,0-9.66,0-10.52,1.38s-.34,31.74-.86,31.57-10.52-29.85-10.52-29.85c0,0-7.42,1.38-7.76,2.59s9.32,37.27,8.46,38.47c-.86,1.22-17.42-32.6-25.36-28.63-7.96,3.97-9.16,5.87-9.16,5.87Z"/>
        <path class="cls-6" d="M77.78,100.5c10.65.78,34.43,3.74,55.61-12.92,0,0,3.91-.5-.89,2.88-4.81,3.39-16.77,10.35-26.8,12.14-18.6,3.31-27.92-.47-27.92-.47,0,0-3.48-1.15,0-1.64Z"/>
        <path class="cls-6" d="M158.45,108.6c-8.36,5.48-26.45,18.76-51.84,13.69,0,0-3.45,1.31,2.12,2.12,5.57.81,18.73,1.54,27.82-1.41,16.85-5.46,22.67-12.96,22.67-12.96,0,0,2.3-2.58-.78-1.44Z"/>
        <path class="cls-6" d="M101.65,145.42c10.68.1,34.6,1.54,54.67-16.45,0,0,3.87-.76-.71,2.93s-16.07,11.41-25.98,13.84c-18.36,4.49-27.89,1.31-27.89,1.31,0,0-3.53-.92-.1-1.64Z"/>
        <path class="cls-6" d="M178.09,147.09c-8.62,5.61-27.26,19.2-53.13,14.41,0,0-3.55,1.36,2.14,2.11,5.69.75,19.12,1.33,28.46-1.75,17.29-5.7,23.32-13.32,23.32-13.32,0,0,2.4-2.63-.78-1.44Z"/>
      </g>
    </g>
    <rect class="cls-8" x="139.31" y="75.81" width="181.68" height="85.24" rx="12" ry="12"/>
    <text class="cls-2" transform="translate(173.96 125.3)"><tspan class="cls-5" x="0" y="0">Compost </tspan><tspan class="cls-4" x="126.72" y="0"> </tspan></text>
  </g>
</svg>