<?xml version="1.0" encoding="UTF-8"?>
<svg id="Layer_2" data-name="Layer 2" xmlns="http://www.w3.org/2000/svg" viewBox="0 0 198.31 134.48">
  <defs>
    <style>
      .cls-1 {
        fill: #4a673d;
        font-family: KirangHaerang-Regular, 'Kirang Haerang';
        font-size: 15px;
      }

      .cls-2 {
        fill: #ffefba;
        stroke: #48673c;
        stroke-miterlimit: 10;
        stroke-width: 3px;
      }

      .cls-3 {
        fill: #4c367b;
      }

      .cls-3, .cls-4, .cls-5, .cls-6, .cls-7 {
        stroke-width: 0px;
      }

      .cls-4 {
        fill: #506741;
      }

      .cls-5 {
        fill: #7c2346;
      }

      .cls-6 {
        fill: #513921;
      }

      .cls-7 {
        fill: #634e90;
      }
    </style>
  </defs>
  <g id="Layer_1-2" data-name="Layer 1">
    <g id="Layer_1-2" data-name="Layer 1-2">
      <circle class="cls-5" cx="159.35" cy="44.69" r="38.96"/>
      <g>
        <path class="cls-6" d="M112.03,20.79s-13.89,13.46-17.95,21.58-12.39,21.45-10.9,37.65c.83,9.02,13.25,24.53,30.99,25.38,17.73.85,26.07-5.98,29.27-12.18,3.21-6.2,10.26-15.17,13.67-39.53s-7.69-38.67-8.76-38.46-25,2.99-25,2.99c0,0-11.32,2.57-11.32,2.57Z"/>
        <path class="cls-7" d="M112.91,24.53s-12.42,12.19-16.06,19.54-11.09,19.43-9.75,34.09c.6,6.63,8.05,17.14,19.32,21.27,2.61.95,5.42,1.57,8.4,1.71,15.87.77,23.32-5.42,26.19-11.03s9.18-13.74,12.23-35.79c3.06-22.06-6.88-35.02-7.84-34.83s-22.36,2.71-22.36,2.71l-10.13,2.33Z"/>
        <path class="cls-3" d="M114.83,101.43c16.8.27,23.35-5.67,26.22-11.28s9.18-13.74,12.23-35.79c3.06-22.06-7.75-35.8-7.84-34.83-4.74,52.31-1.21,63.46-39.02,79.92,0,0,5.34,1.93,8.41,1.98Z"/>
        <path class="cls-4" d="M138.18,10.31s-23.81.29-34.14,18.65c0,0-2.87,4.59,9.47-1.43,0,0,3.73-4.3,1.72,6.02-2.01,10.33,8.61.86,10.04,0s5.74-4.59,6.6,0-.49,13.48,3.48,12.91,9.71-12.05,10.86-10.61c1.15,1.43,1.72,14.06,4.02,14.63s6.88-2.58,7.46-9.75-1.72-24.1-10.61-27.25c0,0,1.72-9.75,3.16-10.9,1.43-1.15-4.59-2.58-4.59-2.58,0,0-2.88,11.75-7.47,10.31Z"/>
      </g>
    </g>
    <rect class="cls-2" x="1.5" y="37.13" width="104.92" height="49.22" rx="12" ry="12"/>
    <text class="cls-1" transform="translate(20.43 54.68)"><tspan x="0" y="0">Have lots of </tspan><tspan x="-13.96" y="16">unedible scraps?</tspan></text>
  </g>
</svg>