<?xml version="1.0" encoding="UTF-8"?>
<svg id="Layer_2" data-name="Layer 2" xmlns="http://www.w3.org/2000/svg" xmlns:xlink="http://www.w3.org/1999/xlink" viewBox="0 0 1673.94 1179">
  <defs>
    <style>
      .cls-1 {
        clip-path: url(#clippath);
      }

      .cls-2 {
        fill: none;
        stroke-width: 0px;
      }
    </style>
    <clipPath id="clippath">
      <path class="cls-2" d="M365.08,1068.6c-51.74,55.24-123.56,91.39-201.65,97.63-104.54,8.35-206.53-37.59-102.65-302.29C240.45,406.08,19.25,386.99,1.71,262.02-15.83,137.05,103.03-123.79,283.2,68.43c180.17,192.22,213.77,199.38,327.08,9.15,113.3-190.24,311.56,87.78,366.51,125.85,54.95,38.07,127.23-112.19,243.03-177.16,113.17-63.49,452.15-20.12,192.22,272.91-9.96,11.22-20.86,21.68-32.49,31.39-43.21,36.05-161.05,152.44,108.07,160.31,318.74,9.31,158.77,184.81,31.62,195.18-127.15,10.37-404.59,39.39-191.76,176.13,212.82,136.74,244.49,120.45,172.47,247.2-72.02,126.75-274.54,36.8-360.33-71.14-85.79-107.94-163.37-223.88-242.14,20.49-78.77,244.37-230.13,59.41-317.51-56.33-58.57-77.58-156.6,3.97-214.88,66.19Z"/>
    </clipPath>
  </defs>
  <g id="Layer_1-2" data-name="Layer 1">
    <g class="cls-1">
      <image width="1920" height="1280" transform="translate(-56.68 -13.84) scale(.93)" xlink:href="../../../../../Users/lanumt1/Desktop/fruit-1095331_1920.jpg"/>
    </g>
  </g>
</svg>