<?xml version="1.0" encoding="UTF-8"?>
<svg id="Layer_2" data-name="Layer 2" xmlns="http://www.w3.org/2000/svg" viewBox="0 0 152.28 150.71">
  <defs>
    <style>
      .cls-1 {
        fill: #49683d;
        stroke-width: 0px;
      }

      .cls-2 {
        fill: #4a673d;
      }

      .cls-2, .cls-3 {
        stroke: #56371d;
        stroke-miterlimit: 10;
        stroke-width: .75px;
      }

      .cls-3 {
        fill: #cadd73;
      }
    </style>
  </defs>
  <g id="Layer_1-2" data-name="Layer 1">
    <g>
      <g>
        <path class="cls-1" d="M19.05,18.34c.44-.28.83-.54,1.17-.77.34-.23.72-.52,1.15-.85.09-.07.17-.13.25-.17.08-.05.15-.1.23-.15l.73-.56c.09-.07.15-.11.17-.11.03,0,.07.04.14.13.07.09.15.21.25.37.09.16.15.34.17.56l1.25,4.07c.03.12.08.27.15.47s.13.41.21.63c.08.23.14.45.21.66.06.21.12.37.17.47-.01.1.02.29.09.6.08.3.16.63.24.98.08.35.16.68.24.98s.11.51.12.62c.03.15.09.33.17.53.09.21.17.43.25.69.1.47.23,1,.39,1.59.16.6.28,1.06.37,1.39,0,.11.03.27.1.46.07.19.13.4.19.61.06.21.13.41.19.61.06.19.11.34.13.44.04.28.12.56.23.83.11.27.2.54.26.81.07.24.15.48.26.75.1.26.19.5.26.7l-.43.33c-.09.07-.18.12-.26.16-.09.04-.21.15-.38.34-.14.11-.32.26-.52.44-.2.19-.36.29-.48.33l-.94.73c-.07.06-.16.08-.25.07-.05,0-.11.01-.17,0-.07-.12-.22-.24-.46-.35-.25-.11-.47-.26-.67-.45-.22-.09-.39-.21-.54-.36s-.3-.27-.49-.35c-.37-.29-.72-.55-1.06-.79-.34-.24-.67-.47-.98-.68-.45-.28-.88-.57-1.3-.87-.42-.29-.84-.58-1.28-.84-.28-.21-.6-.44-.95-.67-.35-.23-.63-.41-.84-.53-.01-.02-.03-.03-.04-.03-.02,0-.03-.01-.04-.03-.03,0-.05-.02-.07-.03-.04.03-.03.08,0,.15.04.07.05.14.05.2-.01-.02,0,.04.04.19.04.14.08.32.14.54.05.22.12.43.19.63.07.2.13.35.16.43.24.5.47,1.07.69,1.7.22.64.43,1.19.62,1.67.03.3.11.61.26.94.14.33.29.65.43.94.13.28.25.56.36.86.12.3.18.57.2.81.08.25.14.45.18.59.04.14.07.28.11.41.03.13.05.21.07.23l-2.59,2c-.09.07-.2.1-.33.1-.13,0-.23-.05-.3-.14l-.88-.69c-.1-.06-.26-.15-.47-.28-.21-.12-.42-.26-.63-.4-.21-.14-.41-.27-.59-.4-.19-.13-.32-.23-.41-.31-.26-.15-.48-.3-.67-.45-.19-.15-.41-.29-.65-.42-.13-.1-.3-.21-.5-.34-.2-.13-.41-.26-.63-.4-.22-.13-.41-.26-.58-.39-.17-.13-.31-.24-.41-.33-.13-.13-.26-.23-.39-.3-.13-.07-.27-.15-.42-.24-.18-.09-.28-.16-.29-.21-.47-.27-.84-.49-1.12-.66-.28-.17-.54-.34-.79-.49-.25-.15-.4-.26-.45-.34-.25-.21-.55-.41-.91-.61-.36-.2-.65-.41-.88-.63-.16-.13-.3-.2-.41-.2l-.86-.5-.3-.11c-.13-.1-.33-.24-.58-.41-.25-.18-.52-.36-.8-.54-.29-.18-.55-.35-.8-.5-.25-.15-.44-.26-.58-.33-.14,0-.28-.06-.39-.17-.11-.11-.25-.18-.41-.2-.07-.09-.1-.14-.1-.16s.05-.06.14-.13c.15-.17.32-.31.51-.4.19-.12.37-.26.54-.42.26-.23.61-.47,1.07-.74.45-.27.87-.51,1.23-.74.07-.06.17-.06.29-.01.1.01.16.05.21.1.07.09.17.18.31.26.13.08.26.16.38.24.46.37.93.75,1.42,1.16.49.41.93.75,1.31,1.03.12.05.3.15.54.31.24.16.48.34.73.55.25.21.47.4.68.57.2.17.34.28.4.32.28.13.53.28.76.45.23.17.46.32.68.46.05.02.12.06.23.13.11.06.22.12.34.19.12.06.23.13.33.2.1.07.15.11.17.13.45.28.85.55,1.2.8.35.25.71.47,1.09.66.4.15.74.33,1.01.55.27.22.57.39.89.52.04.05.09.08.16.09.03,0,.05.02.07.03.07-.06.1-.15.08-.28-.22-.84-.51-1.66-.89-2.48-.37-.82-.69-1.67-.95-2.56-.22-.58-.44-1.16-.66-1.75-.23-.59-.5-1.18-.83-1.79-.08-.17-.14-.31-.19-.41-.05-.1-.07-.2-.06-.3.1-.17.23-.28.37-.35.15-.07.26-.13.33-.19l1.08-.83c.08-.09.17-.16.27-.21.1-.05.23-.02.38.1.53.28,1.01.61,1.45.99s.89.74,1.37,1.1c.38.2.75.43,1.12.7.37.27.72.5,1.06.67.38.23.74.49,1.08.78.34.29.68.57,1.02.82.32.15.61.37.88.63.26.27.53.42.78.45.11-.08.16-.17.15-.25,0-.03,0-.07-.04-.1-.06,0-.11-.09-.15-.25-.04-.16-.09-.31-.15-.47l-.53-1.53-.43-1.61c-.1-.24-.22-.58-.36-1.02-.14-.44-.23-.77-.29-.98-.08-.28-.17-.55-.27-.8-.11-.25-.2-.5-.28-.75-.07-.12-.15-.29-.24-.5-.09-.21-.19-.44-.28-.67-.09-.23-.18-.45-.25-.66-.08-.21-.14-.39-.19-.52-.06-.19-.1-.35-.12-.49-.02-.14-.06-.3-.12-.49-.14-.44-.3-.91-.5-1.42-.19-.51-.38-1.01-.56-1.5-.1-.32-.21-.61-.33-.87-.11-.26-.2-.5-.27-.74,0-.08-.02-.22-.04-.42-.02-.2-.05-.31-.08-.35Z"/>
        <path class="cls-1" d="M46.57,26.47l-.2.13c-.09.07-.16.1-.19.11-.04,0-.14.04-.3.12-.02,0-.08.05-.17.12s-.2.14-.31.22c-.11.08-.25.14-.4.2-.15.06-.27.08-.38.08-.1.05-.18.07-.23.07-.05,0-.13.02-.23.07-.14-.04-.25-.13-.34-.29-.09-.16-.15-.29-.2-.4l-.36-.77-.09.45-.32.78c-.14.24-.26.44-.35.59-.09.15-.21.33-.34.51-.22.33-.5.61-.83.83-.33.23-.65.41-.96.55-.31.14-.66.23-1.06.26-.4.03-.75.06-1.07.08-.09.02-.19.02-.28,0-.1-.02-.18-.03-.26-.05-.17-.05-.36-.09-.56-.12-.2-.03-.38-.08-.53-.13-.08-.01-.16-.03-.23-.06-.08-.03-.16-.04-.27-.05-.13-.01-.27-.07-.42-.18-.21-.18-.44-.34-.69-.49-.25-.15-.5-.34-.73-.58-.17-.2-.35-.38-.55-.54-.2-.16-.34-.33-.42-.52-.05-.1-.14-.27-.27-.51-.13-.24-.22-.41-.27-.51-.08-.19-.15-.33-.18-.44-.04-.11-.1-.27-.2-.47-.05-.1-.08-.22-.1-.35-.02-.13-.05-.29-.1-.5-.06-.25-.14-.5-.24-.77-.1-.27-.16-.49-.2-.68.02-.33.04-.54.07-.63s.02-.22-.02-.4c-.02-.14-.03-.33-.05-.56-.02-.23.02-.43.12-.6.04-.07.1-.18.18-.34s.15-.33.23-.52c.08-.19.15-.35.21-.49.06-.14.11-.22.15-.24l.44-.5c.14-.14.3-.27.49-.4.19-.12.38-.23.57-.32l.95-.47c.1-.05.22-.1.36-.16.13-.06.23-.09.28-.09.1-.05.22-.06.35-.05.13.01.25,0,.35-.05s.25-.07.44-.07c.19,0,.36.03.51.09.24-.01.45.01.61.07.17.06.32.12.47.18.15.06.29.11.43.16s.28.1.43.16c.03.06.09.09.19.1.05,0,.09,0,.12.02.02-.06,0-.15-.04-.28-.05-.13-.06-.26-.05-.39-.11-.3-.22-.57-.32-.81-.1-.24-.16-.41-.17-.5-.06-.07-.1-.2-.13-.37-.03-.17.02-.26.14-.27.03-.04.12-.08.28-.13.15-.05.33-.1.53-.15.2-.05.4-.12.61-.19.21-.07.38-.14.53-.2.02,0,.05.04.1.14.05.1.07.19.08.26l1.55,2.89,1.53,3.34c.03.06.05.13.07.19.02.07.04.13.07.19.11.18.2.36.29.56.09.2.18.4.28.6.09.14.16.28.22.44.06.16.13.32.2.49.06.12.14.29.25.5.11.21.22.43.32.66s.21.45.3.67c.1.22.18.4.25.54l.07.15ZM40.43,23.63l-.04-.09c-.06-.12-.16-.41-.31-.85-.15-.44-.49-.92-1-1.44-.14-.14-.31-.27-.52-.4-.21-.13-.47-.18-.79-.16-.16.03-.32.04-.47.04-.15,0-.29.05-.42.14-.13.11-.26.28-.41.53-.15.24-.25.5-.3.77-.06.15-.07.29-.03.43.04.13.08.29.14.46.06.3.11.53.14.68.04.16.11.35.21.58.19.41.47.72.85.92.38.2.62.34.73.41.09.03.16.04.22.03.06-.01.16,0,.31.06.25,0,.46-.07.61-.22.15-.16.32-.34.5-.55l.18-.08c.14-.19.25-.36.32-.52.08-.16.12-.37.13-.62l-.06-.12Z"/>
        <path class="cls-1" d="M54.6,21.42c.17-.26.27-.51.32-.77.05-.26.03-.55-.06-.88-.05-.2-.16-.38-.32-.55-.16-.17-.37-.28-.62-.33-.58-.06-1.17-.11-1.77-.16-.6-.05-1.24-.05-1.9.01-.34-.03-.69-.05-1.06-.07s-.79-.02-1.26-.02c-.99-.18-1.72-.74-2.21-1.67-.11-.42-.22-.82-.33-1.22-.1-.39-.12-.83-.03-1.3.05-.34.1-.6.17-.77.06-.17.13-.31.21-.41.08-.1.16-.19.24-.28.08-.08.18-.19.28-.34.45-.33.85-.6,1.18-.79.34-.2.75-.42,1.25-.67.19-.17.39-.29.59-.37.2-.08.4-.14.6-.2l1.78-.48c.33-.09.64-.17.92-.26.28-.09.58-.16.89-.22.49-.11.95-.18,1.38-.23.43-.05.94-.09,1.52-.12.52-.07.9-.09,1.15-.06-.01.12,0,.31.03.56.03.25.07.5.11.75.01.04.02.08.01.12,0,.04,0,.08.01.12.03.11.01.18-.04.22-.04.03-.09.05-.15.04-.06,0-.13-.01-.2-.02-.38.06-.77.14-1.17.24-.39.11-.79.22-1.17.35-.39.13-.77.28-1.15.45-.38.17-.75.33-1.11.47-.16.09-.32.17-.46.25-.15.07-.29.15-.43.24-.16.09-.31.19-.43.29-.13.1-.26.23-.41.39-.15.32-.24.6-.27.85-.04.29-.02.57.05.83-.02.12.03.29.14.51.11.22.24.39.42.5.37.23.68.36.95.38.45,0,.87,0,1.28-.02s.78-.02,1.11-.01c.11-.03.24-.04.38-.03.14,0,.27,0,.38-.03.45-.07.87-.11,1.24-.1.38,0,.79.03,1.25.07.34.03.68.06,1.03.09.35.04.71.11,1.06.23.33.26.59.5.77.71.19.21.38.46.57.76l.23.85c.06.22.07.44.04.66-.04.22-.09.4-.17.54-.07.63-.36,1.24-.89,1.82-.34.42-.7.79-1.09,1.12-.39.33-.84.61-1.35.84-.68.44-1.4.78-2.14,1.01-.75.24-1.55.41-2.42.52l-1.85.32c-.2.03-.44.06-.72.09-.28.03-.56.03-.84.01-.4-.01-.69,0-.86.03-.17.03-.27.03-.3,0-.03-.04-.07-.07-.1-.1-.03-.03-.05-.05-.05-.07-.17-.21-.3-.42-.38-.62-.08-.2-.21-.44-.41-.72-.07-.1-.13-.19-.18-.27-.04-.08-.09-.16-.14-.25l-.03-.1s-.03-.07-.04-.09c-.02-.02-.02-.05,0-.1.11-.03.21-.04.29-.04.08,0,.18-.01.29-.04.28,0,.6-.02.96-.04.36-.02.64-.06.83-.12.2-.05.42-.11.66-.16.24-.05.52-.12.83-.2.27-.05.55-.11.83-.19.29-.08.56-.21.81-.39.05-.08.14-.18.28-.29.14-.11.28-.22.44-.35.15-.12.3-.25.45-.37.14-.12.24-.25.3-.38Z"/>
        <path class="cls-1" d="M70.32,19.58c.03.25.05.51.06.78.01.27.05.53.09.78.01.14.03.33.06.59.03.26.03.46.02.6.03.09.02.18-.04.26-.06.09-.11.15-.15.2l-.88.09c-.11.01-.24.02-.39.02s-.28.01-.39.02c-.09.05-.21.09-.37.11-.16.02-.32.03-.49.05-.17.02-.33.03-.48.03-.15,0-.23,0-.26,0-.12-.1-.19-.17-.21-.2-.02-.03-.03-.11-.04-.22l-.33-3.25-.27-1.99-.16-2.28-.23-1.96-.3-1.61c-.27.03-.6.07-.98.13-.38.06-.68.08-.88.06-.39-.03-.69-.02-.9.04-.21.06-.47.1-.79.13l-.22-2.17.2-.02c.11-.01.21-.03.29-.05.08-.02.14-.02.19,0,.12.08.29.09.5.04.21-.06.3-.1.28-.15.25-.05.4-.07.45-.08.06,0,.19-.02.39-.04.18-.02.45-.04.8-.06.35-.02.58-.05.69-.09-.03-.27-.05-.5-.07-.68-.02-.18-.04-.37-.06-.58-.02-.2-.04-.36-.05-.47,0-.43,0-.83-.03-1.18-.03-.35-.05-.75-.07-1.21,0-.32-.03-.62-.06-.92-.03-.29-.06-.6-.09-.92-.03-.32-.05-.71-.07-1.17-.01-.47-.05-.88-.11-1.24-.01-.11-.04-.18-.07-.22-.04-.03-.06-.1-.07-.21s0-.2,0-.26c.02-.06.08-.09.19-.11.2-.02.42-.03.65-.03s.44-.01.65-.03c.34-.03.65-.07.93-.09.28-.03.51-.04.7-.04.34.01.61.03.79.06.02.2.04.38.05.53.02.15.02.3.03.46,0,.16.01.31.03.44.03.57.07,1.06.11,1.48.04.42.1.91.18,1.47.03.25.04.51.06.78.02.27.05.53.1.78,0,.07.02.22.03.44.01.23.02.47.02.73,0,.26,0,.51,0,.73,0,.23,0,.38.01.44.01.11.04.21.1.3.05.09.1.13.15.12.11-.01.26,0,.45,0,.18.02.33.02.45,0,.11-.01.23,0,.36.02.13.02.3.02.53,0,.2-.02.41-.04.63-.05.22,0,.45-.03.7-.05.04,0,.09,0,.14,0s.09,0,.14,0h.13c.15.31.24.69.29,1.12.04.43.02.76-.07,1l-.2.02c-.45.09-.88.17-1.31.25-.43.08-.86.14-1.32.18-.11.01-.25.03-.4.06-.16.03-.29.05-.41.06,0,.05,0,.1,0,.15s0,.11,0,.15v.14s.04.3.04.3c.02.2.04.39.07.56.03.17.04.34.04.53l.25,1.79.02,1.54c.01.11.03.31.04.59.02.28.04.59.06.92s.03.64.04.92c0,.28.01.48.03.6Z"/>
        <path class="cls-1" d="M86.2,13.98c0,.11-.07.22-.19.33-.07.06-.18.11-.31.12-.14.02-.26.02-.38.02-.16.04-.36.05-.58.04-.23-.01-.42-.02-.58-.03-.32-.02-.56-.02-.71-.02-.16,0-.42.02-.79.05l-2.05.07-.02.41c-.01.25.01.5.07.74.06.24.17.49.34.75.1.19.23.36.38.53.15.17.31.28.46.33.13.05.26.1.37.16s.22.1.32.13c.1.04.2.05.29.03.61.03,1.06-.02,1.35-.14.29-.12.64-.28,1.06-.46.09,0,.19-.04.3-.12.11-.08.18-.14.23-.16.12-.04.29-.15.51-.32.22-.17.39-.28.51-.32.07.05.08.2.05.46-.04.26-.04.5,0,.73l-.02.37-.03.68c-.12.13-.21.22-.27.28-.06.05-.11.1-.14.15-.04.04-.09.1-.16.16-.07.07-.18.16-.32.29-.43.39-.87.64-1.33.75-.26.12-.53.21-.83.25-.3.04-.54.09-.72.15-.12.02-.22.03-.31.04-.09,0-.18,0-.27,0h-.27c-.43-.03-.85-.06-1.26-.09-.41-.03-.83-.17-1.28-.42-.16.01-.38-.04-.66-.17-.28-.13-.46-.25-.54-.37-.24-.15-.46-.33-.64-.54-.18-.21-.38-.4-.6-.57-.31-.24-.52-.49-.65-.75-.12-.26-.24-.52-.34-.8-.1-.21-.19-.44-.27-.7-.08-.25-.16-.51-.24-.76.01-.25.02-.49.02-.72s0-.45.02-.68l.06-1.26c.02-.41.13-.89.33-1.45.2-.56.43-1.04.7-1.43.07-.09.16-.17.25-.26.07-.09.16-.17.27-.26.11-.08.22-.18.34-.29.07-.02.14-.05.23-.09.08-.04.2-.1.37-.19.07-.04.16-.12.27-.23.11-.11.25-.18.44-.22.25-.08.5-.16.73-.25.23-.09.4-.13.52-.13.16,0,.45.03.87.08.42.04.82.09,1.2.13.2.03.37.08.51.13.13.05.23.08.3.08.18.03.33.06.46.09.12.03.25.07.39.12.4.16.69.31.88.47.19.16.34.32.47.48.08.12.16.25.24.4.07.15.15.29.24.4.11.14.2.33.3.58.09.24.15.48.19.71.04.18.06.42.07.72,0,.3,0,.56,0,.78,0,.23-.02.4-.04.51-.02.11-.03.27-.04.48ZM83.37,11.86s0-.13.01-.25c0-.12-.01-.21-.06-.26-.17-.3-.41-.49-.74-.56-.33-.07-.62-.09-.87-.06-.16.04-.27.09-.31.16s-.12.16-.22.3c-.05.04-.08.09-.11.13-.03.04-.06.09-.11.13-.05.04-.08.1-.09.18-.02.08-.04.15-.06.22-.05.11-.08.19-.08.24,0,.05.01.16.05.34.09.05.26.1.52.15.26.05.53.08.81.09.28.01.56,0,.82-.01.26-.02.44-.05.53-.09.02-.02,0-.08-.04-.19-.05-.1-.07-.27-.06-.5Z"/>
        <path class="cls-1" d="M104.17,4.61c.25.11.6.24,1.07.39.47.15.9.3,1.3.47.41.15.7.24.89.29.19.04.35.09.48.14.15.05.3.14.44.27l-.76,2.08c-.22.6-.41,1.09-.57,1.48-.17.39-.31.71-.42.97-.12.26-.22.47-.3.63-.08.16-.15.32-.21.47l-.73,2.02c-.07.19-.14.41-.2.65-.06.24-.13.42-.2.54-.13.15-.21.34-.24.56-.02.11-.06.26-.13.44-.07.18-.13.37-.2.56s-.13.37-.2.54c-.06.17-.1.3-.11.4-.08.21-.2.54-.38.99-.17.44-.35.9-.54,1.38-.19.48-.37.94-.54,1.38-.17.44-.29.78-.34,1l1.41.51c.18.16.37.26.55.29.18.03.35.12.51.28l1.95.71c.43.28.9.52,1.42.73.51.21.99.37,1.44.49l1.28.47c0,.05.02.1.05.16,0,.05.01.1.02.15s0,.1-.01.14c-.07.12-.14.28-.21.48-.07.2-.15.4-.22.59-.07.19-.14.35-.21.49-.07.13-.12.19-.14.18l-1.54-.56c-.54-.17-1.01-.32-1.39-.45-.39-.13-.77-.26-1.16-.4l-1.66-.61c-.31-.21-.6-.36-.88-.47-.28-.1-.57-.21-.86-.31l-.35-.13c-.17-.06-.34-.13-.52-.21-.18-.08-.37-.14-.57-.19-.3-.11-.68-.22-1.14-.34-.46-.12-.87-.24-1.21-.37l-1.28-.47c0-.34.04-.63.12-.88.08-.25.15-.47.22-.66l.58-1.6c.17-.13.26-.3.27-.5.01-.2.06-.41.13-.62l.79-1.96c.11-.44.26-.88.44-1.31.18-.43.35-.86.5-1.28,0-.09.04-.22.11-.4.06-.17.13-.35.2-.54.07-.19.14-.38.2-.56.07-.18.11-.33.12-.44.03-.23.12-.42.24-.56.07-.12.13-.3.2-.54.06-.24.13-.46.2-.65l2.29-6.3Z"/>
        <path class="cls-1" d="M124.11,27.66c-.06.1-.17.17-.32.21-.09.02-.21.01-.33-.04-.13-.05-.24-.1-.34-.16-.16-.04-.34-.12-.53-.24-.2-.12-.36-.21-.5-.3-.27-.16-.48-.28-.62-.35-.14-.07-.38-.18-.72-.33l-1.84-.9-.21.35c-.13.21-.22.44-.29.68-.06.24-.08.51-.05.82,0,.21.03.43.09.65.05.22.14.39.25.51.09.11.18.21.25.31.07.1.15.19.22.27.07.08.15.14.24.16.53.31.95.48,1.26.51.31.03.7.06,1.15.09.08.05.18.06.32.03.13-.03.23-.04.28-.03.12.02.32,0,.6-.04.28-.05.48-.06.6-.04.04.07-.02.22-.18.43-.15.21-.27.43-.34.65l-.19.32-.35.59c-.17.06-.29.1-.37.12-.08.02-.14.04-.19.06-.05.02-.13.04-.22.07-.09.02-.23.06-.42.11-.56.14-1.07.16-1.53.04-.29-.01-.57-.07-.85-.17-.28-.1-.52-.17-.71-.2-.11-.04-.21-.08-.29-.11-.08-.04-.16-.08-.24-.12l-.23-.14c-.37-.22-.73-.44-1.08-.66-.34-.22-.66-.54-.93-.97-.15-.06-.32-.21-.5-.46-.19-.24-.29-.44-.31-.58-.14-.25-.25-.5-.31-.78-.06-.27-.15-.54-.26-.79-.16-.36-.23-.68-.22-.96,0-.28.04-.57.08-.86,0-.23.04-.48.08-.74l.15-.78c.13-.21.24-.42.35-.62.11-.2.22-.4.33-.59l.64-1.08c.21-.35.53-.73.97-1.13.44-.4.87-.71,1.29-.94.1-.04.22-.08.34-.11.11-.04.22-.08.36-.1.13-.03.28-.06.43-.1.07.02.15.02.24.02.09,0,.23,0,.41,0,.08,0,.2-.03.34-.07.14-.05.31-.04.49.01.26.05.52.09.76.12.25.03.42.07.52.13.14.08.38.24.73.47.35.23.68.46,1,.68.16.12.29.24.39.35.09.11.17.18.23.21.14.11.26.21.36.29s.19.18.28.29c.28.33.47.6.56.83.09.23.15.44.19.65.02.14.03.3.02.47s0,.32.02.47c.03.18.02.39,0,.65s-.09.5-.17.71c-.05.18-.15.4-.28.67-.13.26-.26.5-.37.69-.12.2-.21.34-.27.43-.07.09-.15.23-.26.4ZM122.61,24.47s.07-.11.13-.22c.06-.11.09-.19.07-.25,0-.35-.13-.63-.39-.85-.25-.22-.5-.37-.74-.46-.16-.04-.28-.05-.35-.01s-.19.09-.33.16c-.06.02-.11.04-.16.06-.04.03-.09.05-.16.06-.06.02-.12.06-.17.12-.05.06-.1.12-.16.16-.1.07-.16.13-.18.17-.02.04-.06.15-.12.33.05.09.19.21.39.37.21.16.43.32.68.46.24.14.49.27.73.37.24.1.41.16.51.17.03,0,.05-.07.05-.19,0-.12.06-.27.18-.47Z"/>
        <path class="cls-1" d="M129.19,37.9c.3,0,.58-.05.82-.16.24-.1.48-.28.71-.53.14-.15.23-.34.28-.57.05-.23.03-.46-.06-.7-.27-.52-.55-1.04-.84-1.57-.29-.53-.64-1.06-1.05-1.58-.16-.3-.34-.6-.52-.92-.19-.32-.41-.67-.67-1.06-.39-.93-.33-1.85.18-2.76.29-.32.57-.63.84-.94.27-.3.63-.55,1.07-.74.31-.15.56-.24.73-.28.17-.04.33-.06.46-.05.13,0,.25.03.36.05.11.03.26.04.44.05.53.2.96.38,1.31.55.35.17.76.4,1.25.68.24.07.46.16.63.29.18.13.34.26.49.39l1.37,1.22c.25.23.49.43.72.62.23.19.45.4.67.62.36.35.67.69.95,1.03s.59.74.94,1.2c.34.4.57.71.68.93-.11.05-.26.16-.45.33-.19.16-.38.33-.56.5-.03.03-.06.06-.09.08-.03.02-.06.04-.09.08-.08.08-.15.11-.21.08-.05-.01-.09-.05-.11-.1-.03-.05-.06-.11-.09-.18-.26-.29-.54-.57-.84-.84-.3-.27-.62-.54-.94-.79-.32-.26-.66-.49-1-.71-.35-.22-.69-.44-1-.67-.17-.09-.32-.17-.46-.25-.14-.08-.29-.16-.43-.23-.17-.09-.33-.15-.48-.2s-.34-.09-.55-.13c-.35.05-.63.13-.85.24-.27.13-.49.29-.67.5-.11.05-.23.19-.35.39-.12.21-.19.42-.19.63,0,.43.08.77.2,1,.25.37.49.72.72,1.06.24.33.44.64.62.92.08.08.16.18.23.3.07.12.15.22.23.3.31.34.56.66.77.98.2.32.41.68.63,1.09.16.3.32.6.49.91.16.31.29.65.39,1.01-.04.42-.1.77-.17,1.03-.07.27-.18.57-.32.9l-.59.66c-.15.17-.33.3-.53.39-.2.09-.39.14-.55.15-.56.29-1.23.38-2.01.26-.53-.05-1.04-.15-1.54-.3-.49-.15-.97-.37-1.44-.67-.74-.33-1.42-.74-2.02-1.24-.61-.5-1.19-1.07-1.76-1.73l-1.28-1.37c-.14-.15-.29-.34-.46-.55-.17-.22-.33-.45-.47-.7-.21-.34-.38-.57-.5-.69-.12-.12-.17-.21-.16-.26.01-.05.02-.09.03-.13,0-.04.01-.07.03-.09.08-.26.19-.48.31-.66.13-.18.25-.42.38-.73.04-.11.08-.21.13-.3.04-.08.09-.17.13-.25l.07-.08s.05-.06.06-.09.03-.05.08-.06c.08.08.15.15.19.22.04.07.11.14.19.22.16.23.35.49.56.78.22.28.4.5.55.63.15.14.32.29.5.47.18.17.39.37.62.58.19.2.39.4.61.59.22.2.48.35.77.46.1,0,.23.02.39.07.16.06.34.11.53.18.19.06.37.12.55.17.18.05.34.07.48.04Z"/>
        <path class="cls-1" d="M139.91,49.76c.3.06.58.07.84.02.26-.05.53-.17.8-.37.17-.12.3-.29.4-.5.1-.21.13-.44.08-.69-.16-.56-.32-1.13-.49-1.71-.17-.58-.4-1.17-.7-1.77-.1-.32-.2-.66-.32-1.01-.12-.35-.26-.74-.44-1.18-.19-.99.07-1.87.76-2.66.35-.25.69-.5,1.02-.74.33-.24.73-.41,1.2-.49.34-.08.6-.12.78-.12.18,0,.33.01.46.05.12.04.24.08.35.13.11.05.25.09.42.14.47.3.86.57,1.16.82.3.24.66.55,1.07.92.22.12.41.26.56.42.15.16.28.32.4.49l1.08,1.49c.2.28.39.53.58.76s.36.48.53.75c.28.42.51.82.71,1.21.2.39.42.85.66,1.37.25.46.41.81.47,1.05-.12.03-.29.1-.51.23-.22.12-.44.24-.66.37-.04.03-.07.05-.11.06-.04.01-.07.03-.11.06-.09.07-.17.08-.22.04-.05-.02-.08-.07-.09-.12-.02-.06-.03-.12-.05-.19-.19-.34-.41-.67-.65-1-.24-.33-.49-.65-.75-.97-.26-.32-.54-.62-.83-.91-.3-.29-.58-.58-.84-.86-.14-.12-.28-.23-.4-.34-.12-.11-.25-.21-.38-.31-.14-.12-.29-.22-.43-.3-.14-.08-.31-.16-.51-.24-.35-.02-.65,0-.89.06-.29.07-.54.18-.76.34-.12.03-.26.13-.43.31-.17.18-.27.37-.32.57-.08.43-.09.77-.01,1.02.16.42.32.81.48,1.19.16.37.3.72.41,1.03.07.09.12.21.17.34.04.14.1.25.17.34.23.39.41.77.54,1.12.13.35.26.75.38,1.19.1.32.19.66.28,1,.09.34.15.7.17,1.08-.13.4-.26.73-.38.98-.13.25-.3.52-.5.81l-.72.52c-.18.13-.38.22-.6.27-.22.05-.41.06-.57.03-.61.16-1.28.11-2.02-.17-.51-.16-.99-.37-1.44-.62s-.87-.57-1.26-.95c-.66-.48-1.23-1.02-1.72-1.63-.49-.61-.94-1.3-1.36-2.07l-.96-1.61c-.1-.18-.22-.39-.34-.64-.12-.25-.23-.51-.31-.78-.14-.38-.25-.64-.34-.78s-.12-.24-.1-.28c.02-.05.04-.09.06-.12.01-.04.03-.06.05-.08.13-.24.28-.43.44-.58.16-.15.34-.36.53-.64.06-.1.13-.19.19-.26.06-.07.12-.14.18-.22l.08-.06s.06-.05.07-.07.04-.04.09-.05c.07.09.11.18.14.25.03.08.08.16.14.25.11.26.23.55.39.88.15.32.29.57.41.73.12.17.25.35.39.56.14.21.3.44.49.7.14.23.3.47.47.71.17.24.39.44.66.62.09.01.22.07.37.16.15.09.31.18.48.28.17.1.34.2.5.29.16.09.32.14.46.15Z"/>
      </g>
      <path class="cls-1" d="M48.78,146.77c-.08.24-.17.48-.26.74-.1.25-.17.5-.23.75-.04.13-.11.32-.19.56-.08.25-.16.43-.22.56,0,.09-.06.17-.15.22-.09.05-.16.1-.22.12l-.84-.28c-.11-.04-.23-.08-.37-.14-.14-.06-.26-.1-.37-.14-.1.01-.23,0-.38-.05-.15-.05-.31-.1-.47-.15s-.31-.11-.45-.17-.22-.09-.24-.1c-.07-.14-.11-.23-.11-.27s.02-.11.05-.22l1.03-3.1.57-1.93.78-2.14.59-1.89.38-1.59c-.26-.09-.57-.18-.95-.28-.37-.1-.65-.2-.83-.31-.34-.19-.62-.3-.84-.33-.22-.04-.47-.1-.77-.2l.69-2.07.19.06c.11.04.2.06.28.07.08.01.14.04.17.07.08.12.23.2.44.24.22.04.32.03.31-.02.24.06.39.09.45.11.05.02.18.06.37.12.17.06.42.15.75.27.33.12.55.19.67.2.09-.26.16-.47.21-.65.06-.17.12-.36.18-.55.06-.19.11-.34.15-.45.18-.4.33-.76.45-1.09.12-.33.26-.71.43-1.13.12-.29.23-.58.32-.86.09-.28.19-.57.29-.87.1-.3.24-.67.42-1.1.18-.43.31-.82.41-1.17.04-.11.04-.18.02-.23s-.01-.12.02-.23c.04-.11.07-.19.11-.23.04-.05.11-.05.22-.02.19.06.4.14.6.24.21.09.41.17.6.24.32.11.62.21.89.29.27.09.49.17.65.25.31.15.54.28.7.38-.06.19-.12.36-.17.5-.05.14-.1.28-.16.43-.06.15-.11.29-.16.41-.2.53-.37,1-.5,1.4-.13.4-.28.87-.43,1.42-.08.24-.17.48-.26.74-.1.26-.17.51-.23.75-.02.07-.07.2-.16.42-.08.21-.18.44-.28.68-.1.24-.2.47-.3.67-.09.21-.15.34-.17.41-.04.11-.05.21-.03.31.02.1.04.16.09.17.11.04.24.1.4.19.16.09.3.15.4.19.11.04.21.09.32.16.11.07.27.14.48.21.19.06.39.14.59.21.2.08.42.16.66.24.04.01.08.03.12.06.04.03.08.04.12.06l.13.04c0,.36-.07.74-.2,1.15-.14.41-.29.7-.47.88l-.19-.06c-.45-.1-.88-.2-1.3-.31s-.85-.23-1.28-.37c-.11-.04-.24-.07-.39-.11-.15-.04-.29-.08-.39-.11-.01.04-.04.09-.06.14-.03.05-.05.1-.06.14l-.04.13-.1.29c-.06.19-.12.37-.16.54-.04.17-.1.33-.18.5l-.5,1.73-.61,1.41c-.04.11-.1.29-.2.56-.1.27-.21.55-.32.86-.12.31-.23.59-.34.86-.11.26-.18.45-.22.55Z"/>
      <path class="cls-1" d="M33.4,122.35c-.25.18-.46.42-.63.72-.17.3-.35.58-.54.83-.07-.05-.22-.13-.45-.23-.23-.1-.43-.2-.6-.3-.07-.05-.15-.12-.24-.2-.08-.08-.16-.13-.23-.15l-.6-.28-1.53-1.14c-.4-.27-.74-.52-1.03-.75-.29-.23-.63-.49-1.01-.78-.07-.05-.18-.12-.33-.21-.15-.08-.25-.15-.29-.21-.07.09-.13.16-.19.2-.06.04-.12.11-.19.2-.02.07-.11.21-.26.44-.15.23-.33.47-.51.74-.19.27-.36.52-.51.74-.15.22-.25.36-.29.42l-.92,1.23c-.11.15-.19.27-.25.36-.06.1-.13.24-.22.43l1.58,1.18c.29.22.56.43.8.64.24.21.52.43.83.66.16.12.35.28.57.47.21.19.4.31.55.37-.1.18-.22.36-.33.56-.12.2-.23.37-.34.51l-.33.44c-.07-.05-.22-.15-.43-.28s-.41-.25-.59-.35l-1.15-.85c-.41-.22-.76-.44-1.07-.67-.31-.23-.66-.49-1.04-.77-.07-.05-.17-.11-.29-.18-.12-.06-.2-.12-.25-.18l-.75,1.01c-.19.26-.38.52-.58.8-.2.28-.34.54-.43.78-.24.33-.47.64-.67.92-.2.29-.39.55-.57.79l-.35.46s.16.1.32.28c.16.18.37.39.61.63.25.24.46.44.64.6s.33.33.45.5c.06.11.24.27.54.51.29.23.49.38.58.45.42.39.83.76,1.26,1.11s.85.7,1.28,1.08l.98.73c.07.05.17.1.28.14.11.04.19.07.22.1-.15.4-.34.75-.56,1.07-.22.32-.45.63-.68.94-.21-.02-.43-.11-.65-.27-.22-.16-.43-.31-.65-.44-.13-.1-.26-.21-.39-.33-.13-.13-.27-.24-.42-.35-.38-.25-.81-.58-1.3-.97-.49-.39-.93-.7-1.32-.94l-.41-.31c-.17-.19-.43-.42-.77-.7-.34-.28-.6-.49-.79-.63-.19-.17-.51-.4-.97-.7-.46-.3-1.2-.82-2.24-1.56-.04-.03-.16-.12-.37-.28-.21-.15-.44-.32-.69-.49-.25-.17-.49-.34-.7-.48-.22-.15-.34-.23-.38-.26.28-.38.54-.77.77-1.17.23-.4.45-.75.68-1.06.13-.18.28-.4.44-.65.16-.25.32-.44.47-.58.47-.56.91-1.12,1.32-1.69.41-.57.83-1.15,1.27-1.73.09-.13.26-.36.48-.7.23-.34.46-.65.69-.93l.57-.89c.08-.14.26-.36.56-.67.3-.3.53-.59.7-.86.29-.43.55-.82.77-1.15s.48-.72.79-1.17c.27-.4.55-.77.86-1.12s.59-.7.84-1.05c.07-.09.13-.16.19-.22.06-.06.16-.09.3-.09l1.35,1.09c.26.22.57.46.94.7.37.25.68.48.94.7.07.05.14.1.22.14.07.04.14.09.21.14.05.04.17.13.36.27.18.13.37.28.57.43.2.15.38.28.55.41.16.12.26.21.28.25s.12.15.29.3c.17.15.3.26.39.33.05.04.14.1.26.17.12.07.23.15.35.24s.23.17.34.25c.11.08.19.14.25.18.17.19.35.34.53.46.18.12.36.26.55.43.02.01.11.09.28.23.17.14.35.3.56.48.21.18.39.34.56.48.17.14.26.21.28.23Z"/>
      <path class="cls-1" d="M37.16,144.42l-.23-.08c-.11-.03-.18-.06-.21-.09-.03-.03-.12-.08-.28-.16-.02-.01-.09-.03-.2-.06-.11-.03-.23-.07-.36-.11-.13-.04-.27-.11-.4-.19s-.23-.17-.29-.25c-.1-.05-.17-.1-.2-.14-.03-.04-.1-.09-.2-.14-.06-.13-.05-.28.02-.45s.14-.3.19-.4l.39-.76-.41.21-.81.23c-.27.04-.5.07-.68.09-.18.02-.38.04-.62.04-.4.03-.79-.02-1.17-.15s-.73-.26-1.03-.42-.59-.38-.86-.67c-.27-.29-.51-.56-.72-.79-.07-.06-.13-.14-.17-.22s-.09-.17-.13-.24c-.07-.16-.15-.34-.25-.51s-.17-.35-.22-.5c-.04-.07-.07-.15-.1-.22s-.07-.16-.13-.24c-.07-.11-.11-.26-.12-.44.01-.27,0-.56-.04-.85-.04-.29-.04-.6,0-.94.05-.25.08-.51.09-.76,0-.25.05-.47.15-.65.05-.1.13-.28.24-.53s.18-.43.24-.53c.09-.18.17-.32.23-.42s.15-.24.25-.44c.05-.1.12-.2.21-.3.09-.09.2-.22.33-.38.15-.2.31-.42.46-.66.15-.24.29-.43.41-.57.28-.19.46-.3.54-.34.08-.03.18-.12.31-.26.1-.1.24-.23.41-.38s.35-.25.54-.28c.08,0,.21-.03.38-.07.17-.04.36-.08.55-.14s.36-.1.51-.14c.15-.04.24-.05.28-.03l.67.04c.19.02.4.07.61.15s.42.16.6.25l.95.45c.1.05.22.11.35.18s.21.12.24.16c.1.05.19.13.26.25.07.11.15.19.26.25.1.05.21.15.32.3.12.15.2.3.24.45.16.19.27.36.32.53.05.17.1.33.15.48.05.15.09.3.14.44.04.14.09.28.14.44-.03.06-.02.13.04.21.03.04.05.08.06.11.06-.02.13-.09.2-.2.07-.12.16-.21.28-.28.17-.27.31-.52.45-.75.13-.23.22-.37.29-.45.02-.09.09-.2.21-.33.12-.13.22-.15.3-.06.05,0,.14.05.27.14.13.09.28.2.45.33.17.12.34.25.52.37.18.12.34.21.48.29.02.01,0,.07-.05.17-.05.1-.11.18-.16.23l-1.32,3-1.69,3.27c-.03.06-.07.12-.11.17s-.08.11-.11.17c-.07.19-.16.38-.26.57-.1.19-.2.39-.3.59-.05.15-.12.3-.21.45-.09.15-.18.3-.26.46-.06.12-.14.29-.24.51-.1.22-.21.44-.32.66-.11.22-.23.44-.34.65-.11.21-.2.39-.27.53l-.08.15ZM35.62,137.84l.05-.09c.06-.12.22-.38.48-.77.25-.39.43-.95.52-1.67.02-.19.02-.41,0-.66-.03-.24-.15-.48-.35-.72-.12-.11-.23-.23-.32-.34-.1-.11-.22-.2-.37-.25-.16-.03-.39-.03-.67,0-.28.03-.55.11-.8.24-.15.05-.27.13-.35.24s-.18.24-.28.39c-.2.23-.34.41-.45.54s-.21.3-.33.52c-.21.4-.28.82-.2,1.24s.12.7.13.83c.03.09.07.16.11.19.04.04.09.13.14.28.15.21.33.32.55.34s.46.04.74.06l.18.09c.23,0,.44-.03.61-.07.17-.04.36-.13.57-.28l.06-.12Z"/>
      <path class="cls-1" d="M84.44,140.72c-.15-.13-.3-.27-.47-.41s-.35-.31-.56-.5c-.41-.34-.78-.68-1.1-1.01-.32-.33-.56-.54-.69-.62l-1.18-.84c-.09-.07-.19-.17-.32-.31-.13-.13-.22-.23-.28-.28-.15-.13-.29-.26-.43-.41-.14-.14-.28-.26-.42-.37-.17-.14-.39-.33-.64-.55s-.39-.33-.41-.32l.39,1.48.41,2.74c.03.11.08.35.15.72.08.37.15.76.23,1.19.08.42.16.82.23,1.19s.13.61.15.72c.09.47.15.89.2,1.25.04.36.13.77.26,1.23.05.22.09.43.1.62.01.2.06.4.13.62.03.11.05.21.08.31s.04.21.04.32c.1.3.17.62.23.94.05.33.12.64.19.95-.24.17-.46.3-.66.37-.21.07-.46.15-.77.22-.08.04-.2.09-.34.13s-.28.09-.41.13-.24.08-.32.11c-.09.03-.12.05-.1.04-.11.03-.23.07-.37.12-.14.06-.3.11-.47.15-.09.02-.18.04-.27.05-.09.01-.19-.03-.31-.12l-.11-1.06-.05-.2c-.1-.33-.2-.65-.3-.96s-.16-.6-.17-.85c-.01-.14-.04-.32-.08-.54s-.09-.46-.15-.7c-.06-.24-.12-.48-.17-.71-.06-.23-.12-.43-.18-.6-.13-.34-.23-.64-.3-.89s-.18-.66-.31-1.24c-.09-.47-.17-.84-.23-1.1-.06-.27-.16-.63-.3-1.09l-.07-.3c-.07-.31-.16-.58-.25-.82-.09-.23-.15-.44-.17-.62-.02-.48-.11-.95-.25-1.39-.14-.44-.25-.93-.33-1.44-.07-.38-.15-.75-.25-1.1s-.19-.71-.28-1.09c-.09-.37-.16-.75-.22-1.14-.06-.38-.13-.76-.22-1.14-.04-.18-.05-.29-.03-.33s.13-.08.3-.13l3.41-.82c.14.08.31.23.53.45s.4.39.54.52c.23.18.46.39.7.64.23.25.44.47.63.65.27.33.52.57.77.73.25.15.48.38.69.67.14.08.26.19.37.31.11.12.22.22.33.29.15.15.35.34.59.56s.47.4.69.54c.38.31.71.59.99.85.28.26.62.53,1.02.81.24.2.44.38.62.55.18.17.38.35.59.56.23.16.47.34.74.54.27.2.58.43.91.67.04-.03.1-.13.19-.31.09-.17.15-.32.19-.45.15-.25.29-.55.43-.91.13-.36.27-.68.41-.97l.17-.74c.02-.1.06-.19.11-.29s.09-.18.11-.25l.57-1.57c.03-.24.15-.56.35-.96.2-.4.37-.86.52-1.39l.12-.24c.13-.43.24-.83.34-1.22s.18-.78.27-1.2c.06-.32.15-.58.25-.78.1-.2.2-.46.28-.79.05-.2.07-.32.07-.38,0-.06.01-.16.05-.31l3.01-.73c.4,0,.67-.02.83-.06.15-.04.27-.06.33-.08.11-.03.22-.05.32-.06.1-.01.24-.04.42-.08l.33,1.36c0,.4.03.74.09,1.03s.12.58.19.86l.8,3.34c.1.4.2.78.31,1.14.11.36.22.75.32,1.17.05.11.09.22.12.34.03.12.06.25.09.38.08.24.13.41.14.53.01.11.06.29.14.52l.1.43c0,.14.04.37.1.69.05.33.11.66.17,1.01.06.35.12.68.19,1,.07.32.11.55.15.68.04.18.11.39.19.65.09.26.15.48.19.65.11.44.21.9.31,1.38.1.48.15.96.16,1.45l.18.76c-.06.13-.16.22-.3.27-.14.05-.27.08-.38.11-.21,0-.42.04-.62.11-.21.07-.35.12-.44.14l-2.55.61c-.12-.3-.23-.6-.32-.9-.1-.3-.18-.6-.25-.89-.03-.13-.07-.32-.12-.57s-.1-.51-.17-.78c-.07-.28-.13-.53-.19-.78-.06-.24-.11-.43-.17-.56-.04-.15-.08-.39-.14-.72-.05-.33-.1-.57-.14-.72l-.3-1.12c-.05-.22-.1-.4-.15-.54-.05-.14-.08-.27-.11-.38l-.22-.61s-.02-.1-.03-.19c0-.08-.02-.14-.03-.19-.21-.49-.34-.98-.37-1.49-.04-.5-.14-.98-.29-1.44-.01-.16-.04-.3-.07-.44-.03-.13-.06-.26-.1-.4l-.48-1.71-.09-.36-.15-.03s-.02.05-.02.07c-.22.33-.41.68-.56,1.03-.15.35-.29.74-.42,1.17l-.64,1.87c-.06.23-.14.48-.24.77-.09.29-.19.59-.28.89-.09.3-.18.59-.27.85-.09.27-.18.49-.27.68-.05.1-.11.26-.19.47-.08.21-.17.43-.26.67-.09.24-.18.49-.27.75-.09.26-.18.49-.27.7l-.09.23c-.1.07-.24.12-.43.16s-.34.06-.45.09c-.2.05-.4.1-.59.16-.2.06-.39.11-.59.16-.22-.13-.45-.33-.71-.6-.25-.27-.46-.47-.64-.62l-.58-.52Z"/>
      <path class="cls-1" d="M103.42,128.75c.14-.09.31-.2.5-.35s.4-.25.62-.31c.28-.08.54-.16.78-.24.24-.08.5-.16.78-.24.22-.06.43-.12.64-.16s.41-.06.61-.05c.04-.01.1-.02.17-.01.07,0,.18.05.32.12.24,0,.47.06.71.15s.47.23.7.41.44.35.65.54c.21.19.39.38.56.57.16.15.29.36.41.63.11.28.23.49.34.65.09.31.18.6.3.87.11.28.21.57.3.87.14.5.26.99.37,1.45.11.47.23.95.37,1.45l.24,1.1c.02.09.02.25,0,.5-.03.24-.04.42-.03.54,0,.24-.02.52-.05.84-.03.33-.06.52-.09.57-.08.14-.13.26-.15.36-.02.1-.03.2-.04.29,0,.1-.03.19-.07.27s-.11.17-.22.27c-.1.07-.21.18-.33.32s-.24.27-.35.4c-.1.07-.14.13-.13.16s-.06.09-.2.18l-.55.3c-.25.12-.46.19-.63.21-.17.02-.35.06-.55.12-.61.17-1.26.22-1.94.15-.2.05-.4.06-.61.03-.21-.04-.38-.09-.49-.18-.13-.06-.27-.12-.41-.19-.14-.07-.27-.14-.41-.22-.23-.15-.43-.3-.59-.47-.16-.17-.33-.34-.5-.53-.18-.21-.36-.42-.57-.64-.2-.22-.37-.47-.5-.76-.18-.49-.35-.94-.5-1.34-.15-.41-.28-.82-.4-1.23l-.38-1.34s-.07-.12-.11-.25c-.04-.13-.05-.22-.04-.27-.03-.11-.06-.23-.08-.35-.02-.12-.04-.24-.05-.36-.03-.18-.06-.36-.11-.53-.05-.17-.04-.36.02-.57,0,.05,0,0,.02-.13.02-.14.04-.28.07-.44.03-.16.05-.3.06-.42.01-.12.02-.17.03-.15l.11-.49c.05-.08.09-.18.13-.29.04-.1.11-.23.2-.37.09-.14.21-.33.37-.56.16-.23.39-.52.69-.87ZM107.34,133.53c-.09.02-.16.09-.21.2-.05.11-.08.2-.08.27-.06.37-.06.66,0,.88.16.59.48.93.95,1.01.11-.03.19-.1.25-.19.05-.1.07-.19.05-.28-.06-.22-.11-.48-.13-.78-.02-.3-.13-.59-.33-.86-.14-.08-.23-.15-.27-.21-.04-.06-.12-.07-.22-.04Z"/>
      <path class="cls-1" d="M115.44,132.09c-.07-.14-.18-.36-.31-.65-.13-.29-.28-.56-.43-.81-.07-.19-.16-.38-.25-.56-.09-.18-.19-.37-.29-.58l-1.34-2.41-.69-1.37c.22-.11.45-.24.69-.37.24-.13.52-.26.84-.37.09-.02.18-.05.26-.09l.43-.22c.16-.03.24-.05.24-.06,0,0,.03,0,.12,0,.05.1.08.18.08.24,0,.06.03.14.09.24l.49.97c.03-.14.04-.26.04-.34,0-.09.02-.21.07-.36l.15-.15c.13-.4.37-.73.71-1.01.34-.28.72-.49,1.12-.65.08-.04.23-.07.45-.09.22-.02.44-.03.68-.02.15-.05.29-.07.43-.06l.14.04c.3.08.57.14.82.18s.47.14.65.3c.35.18.66.4.95.66.29.26.58.56.87.89.05.1.09.2.11.29.02.09-.02.16-.12.21-.25.26-.51.44-.77.56-.26.12-.59.31-.99.56l-.33.17c-.05,0-.09-.02-.12-.05-.03-.03-.05-.06-.06-.08-.08-.11-.16-.21-.24-.28-.08-.08-.13-.14-.16-.21-.02-.04-.06-.09-.11-.14-.05-.05-.1-.09-.14-.12-.07-.04-.13-.07-.17-.11-.58-.19-1.05-.19-1.42,0-.04.02-.1.05-.17.09s-.13.09-.17.16c-.08.09-.19.23-.34.42-.15.19-.23.33-.26.42-.05.15-.1.31-.16.48-.06.17-.08.34-.07.51.02.09.07.24.16.43.09.2.14.32.16.36.05.2.14.47.25.79s.23.6.34.82c.07.14.15.33.23.57.08.24.17.45.26.63.07.14.13.28.19.4s.11.25.17.37l.59,1.15c.06.12.12.26.19.4.06.15.13.29.2.43l.34.67c-.9.74-1.6,1.09-2.09,1.07-.11-.12-.23-.28-.36-.48-.13-.2-.19-.33-.19-.38-.15-.38-.32-.75-.53-1.11-.21-.35-.41-.72-.6-1.11-.12-.19-.23-.4-.32-.64-.09-.23-.19-.44-.28-.62Z"/>
      <path class="cls-1" d="M134.64,122.82c.05.1.05.23,0,.38-.03.09-.1.18-.21.26-.11.08-.22.15-.32.2-.12.11-.29.22-.49.32s-.38.19-.52.26c-.28.14-.5.25-.63.33-.14.08-.36.22-.66.42l-1.76,1.06.18.37c.11.22.25.43.42.61.17.18.39.35.66.49.18.11.38.2.59.28.21.07.4.09.56.06.14-.02.27-.04.4-.04s.24-.02.34-.04c.11-.02.2-.05.27-.11.55-.27.92-.53,1.11-.78s.43-.55.7-.92c.08-.04.15-.12.2-.25s.09-.21.12-.25c.08-.09.18-.27.29-.52s.21-.43.29-.52c.08.01.17.14.26.38s.21.46.36.64l.17.34.3.61c-.04.17-.08.3-.1.37-.03.08-.04.14-.05.2s-.03.13-.06.22-.08.23-.14.41c-.18.55-.45.98-.8,1.31-.16.23-.37.44-.6.62-.24.18-.43.34-.56.48-.09.07-.18.13-.25.18-.08.05-.16.1-.24.14l-.24.12c-.39.19-.77.37-1.14.54-.37.17-.81.26-1.32.25-.13.09-.35.15-.66.17-.31.02-.52,0-.65-.06-.28-.01-.56-.07-.82-.16-.26-.1-.53-.17-.81-.21-.39-.06-.7-.17-.93-.34-.23-.16-.46-.34-.68-.54-.19-.13-.38-.29-.58-.47-.19-.18-.38-.37-.58-.55-.11-.22-.22-.43-.33-.63-.11-.2-.22-.4-.32-.6l-.56-1.13c-.18-.37-.32-.84-.42-1.43-.1-.58-.13-1.11-.09-1.59.02-.11.05-.23.09-.35.02-.11.06-.23.11-.36.05-.13.1-.27.15-.42.05-.05.1-.11.15-.19.05-.08.13-.19.23-.34.04-.07.08-.18.12-.33.04-.15.13-.28.28-.4.18-.19.35-.38.51-.58.16-.19.29-.31.39-.36.14-.07.41-.19.79-.36.39-.17.76-.32,1.11-.47.19-.07.36-.12.5-.14.14-.02.24-.05.3-.08.17-.06.32-.11.44-.14.12-.03.25-.06.4-.08.43-.06.76-.07,1-.02.24.05.45.11.65.19.13.06.27.14.4.24.14.1.27.18.4.24.16.07.34.19.54.36.2.17.37.34.51.53.12.14.26.34.41.6s.28.48.38.69c.1.2.17.36.21.47.04.11.1.25.2.44ZM131.14,122.35s-.06-.12-.11-.23c-.06-.11-.11-.18-.17-.2-.3-.18-.6-.23-.92-.13-.32.1-.58.22-.79.37-.12.11-.19.21-.2.29s-.03.2-.05.37c-.02.06-.03.12-.03.17s-.01.11-.03.17c-.02.06-.02.13,0,.21s.04.15.05.22c.01.12.02.2.04.24.02.04.09.13.21.27.1,0,.28-.04.53-.13.25-.09.5-.19.75-.32.25-.13.49-.26.71-.41.22-.15.36-.26.42-.34.01-.03-.03-.08-.13-.15s-.19-.2-.3-.4Z"/>
    </g>
    <g>
      <g>
        <path class="cls-1" d="M19.05,18.34c.44-.28.83-.54,1.17-.77.34-.23.72-.52,1.15-.85.09-.07.17-.13.25-.17.08-.05.15-.1.23-.15l.73-.56c.09-.07.15-.11.17-.11.03,0,.07.04.14.13.07.09.15.21.25.37.09.16.15.34.17.56l1.25,4.07c.03.12.08.27.15.47s.13.41.21.63c.08.23.14.45.21.66.06.21.12.37.17.47-.01.1.02.29.09.6.08.3.16.63.24.98.08.35.16.68.24.98s.11.51.12.62c.03.15.09.33.17.53.09.21.17.43.25.69.1.47.23,1,.39,1.59.16.6.28,1.06.37,1.39,0,.11.03.27.1.46.07.19.13.4.19.61.06.21.13.41.19.61.06.19.11.34.13.44.04.28.12.56.23.83.11.27.2.54.26.81.07.24.15.48.26.75.1.26.19.5.26.7l-.43.33c-.09.07-.18.12-.26.16-.09.04-.21.15-.38.34-.14.11-.32.26-.52.44-.2.19-.36.29-.48.33l-.94.73c-.07.06-.16.08-.25.07-.05,0-.11.01-.17,0-.07-.12-.22-.24-.46-.35-.25-.11-.47-.26-.67-.45-.22-.09-.39-.21-.54-.36s-.3-.27-.49-.35c-.37-.29-.72-.55-1.06-.79-.34-.24-.67-.47-.98-.68-.45-.28-.88-.57-1.3-.87-.42-.29-.84-.58-1.28-.84-.28-.21-.6-.44-.95-.67-.35-.23-.63-.41-.84-.53-.01-.02-.03-.03-.04-.03-.02,0-.03-.01-.04-.03-.03,0-.05-.02-.07-.03-.04.03-.03.08,0,.15.04.07.05.14.05.2-.01-.02,0,.04.04.19.04.14.08.32.14.54.05.22.12.43.19.63.07.2.13.35.16.43.24.5.47,1.07.69,1.7.22.64.43,1.19.62,1.67.03.3.11.61.26.94.14.33.29.65.43.94.13.28.25.56.36.86.12.3.18.57.2.81.08.25.14.45.18.59.04.14.07.28.11.41.03.13.05.21.07.23l-2.59,2c-.09.07-.2.1-.33.1-.13,0-.23-.05-.3-.14l-.88-.69c-.1-.06-.26-.15-.47-.28-.21-.12-.42-.26-.63-.4-.21-.14-.41-.27-.59-.4-.19-.13-.32-.23-.41-.31-.26-.15-.48-.3-.67-.45-.19-.15-.41-.29-.65-.42-.13-.1-.3-.21-.5-.34-.2-.13-.41-.26-.63-.4-.22-.13-.41-.26-.58-.39-.17-.13-.31-.24-.41-.33-.13-.13-.26-.23-.39-.3-.13-.07-.27-.15-.42-.24-.18-.09-.28-.16-.29-.21-.47-.27-.84-.49-1.12-.66-.28-.17-.54-.34-.79-.49-.25-.15-.4-.26-.45-.34-.25-.21-.55-.41-.91-.61-.36-.2-.65-.41-.88-.63-.16-.13-.3-.2-.41-.2l-.86-.5-.3-.11c-.13-.1-.33-.24-.58-.41-.25-.18-.52-.36-.8-.54-.29-.18-.55-.35-.8-.5-.25-.15-.44-.26-.58-.33-.14,0-.28-.06-.39-.17-.11-.11-.25-.18-.41-.2-.07-.09-.1-.14-.1-.16s.05-.06.14-.13c.15-.17.32-.31.51-.4.19-.12.37-.26.54-.42.26-.23.61-.47,1.07-.74.45-.27.87-.51,1.23-.74.07-.06.17-.06.29-.01.1.01.16.05.21.1.07.09.17.18.31.26.13.08.26.16.38.24.46.37.93.75,1.42,1.16.49.41.93.75,1.31,1.03.12.05.3.15.54.31.24.16.48.34.73.55.25.21.47.4.68.57.2.17.34.28.4.32.28.13.53.28.76.45.23.17.46.32.68.46.05.02.12.06.23.13.11.06.22.12.34.19.12.06.23.13.33.2.1.07.15.11.17.13.45.28.85.55,1.2.8.35.25.71.47,1.09.66.4.15.74.33,1.01.55.27.22.57.39.89.52.04.05.09.08.16.09.03,0,.05.02.07.03.07-.06.1-.15.08-.28-.22-.84-.51-1.66-.89-2.48-.37-.82-.69-1.67-.95-2.56-.22-.58-.44-1.16-.66-1.75-.23-.59-.5-1.18-.83-1.79-.08-.17-.14-.31-.19-.41-.05-.1-.07-.2-.06-.3.1-.17.23-.28.37-.35.15-.07.26-.13.33-.19l1.08-.83c.08-.09.17-.16.27-.21.1-.05.23-.02.38.1.53.28,1.01.61,1.45.99s.89.74,1.37,1.1c.38.2.75.43,1.12.7.37.27.72.5,1.06.67.38.23.74.49,1.08.78.34.29.68.57,1.02.82.32.15.61.37.88.63.26.27.53.42.78.45.11-.08.16-.17.15-.25,0-.03,0-.07-.04-.1-.06,0-.11-.09-.15-.25-.04-.16-.09-.31-.15-.47l-.53-1.53-.43-1.61c-.1-.24-.22-.58-.36-1.02-.14-.44-.23-.77-.29-.98-.08-.28-.17-.55-.27-.8-.11-.25-.2-.5-.28-.75-.07-.12-.15-.29-.24-.5-.09-.21-.19-.44-.28-.67-.09-.23-.18-.45-.25-.66-.08-.21-.14-.39-.19-.52-.06-.19-.1-.35-.12-.49-.02-.14-.06-.3-.12-.49-.14-.44-.3-.91-.5-1.42-.19-.51-.38-1.01-.56-1.5-.1-.32-.21-.61-.33-.87-.11-.26-.2-.5-.27-.74,0-.08-.02-.22-.04-.42-.02-.2-.05-.31-.08-.35Z"/>
        <path class="cls-1" d="M46.57,26.47l-.2.13c-.09.07-.16.1-.19.11-.04,0-.14.04-.3.12-.02,0-.08.05-.17.12s-.2.14-.31.22c-.11.08-.25.14-.4.2-.15.06-.27.08-.38.08-.1.05-.18.07-.23.07-.05,0-.13.02-.23.07-.14-.04-.25-.13-.34-.29-.09-.16-.15-.29-.2-.4l-.36-.77-.09.45-.32.78c-.14.24-.26.44-.35.59-.09.15-.21.33-.34.51-.22.33-.5.61-.83.83-.33.23-.65.41-.96.55-.31.14-.66.23-1.06.26-.4.03-.75.06-1.07.08-.09.02-.19.02-.28,0-.1-.02-.18-.03-.26-.05-.17-.05-.36-.09-.56-.12-.2-.03-.38-.08-.53-.13-.08-.01-.16-.03-.23-.06-.08-.03-.16-.04-.27-.05-.13-.01-.27-.07-.42-.18-.21-.18-.44-.34-.69-.49-.25-.15-.5-.34-.73-.58-.17-.2-.35-.38-.55-.54-.2-.16-.34-.33-.42-.52-.05-.1-.14-.27-.27-.51-.13-.24-.22-.41-.27-.51-.08-.19-.15-.33-.18-.44-.04-.11-.1-.27-.2-.47-.05-.1-.08-.22-.1-.35-.02-.13-.05-.29-.1-.5-.06-.25-.14-.5-.24-.77-.1-.27-.16-.49-.2-.68.02-.33.04-.54.07-.63s.02-.22-.02-.4c-.02-.14-.03-.33-.05-.56-.02-.23.02-.43.12-.6.04-.07.1-.18.18-.34s.15-.33.23-.52c.08-.19.15-.35.21-.49.06-.14.11-.22.15-.24l.44-.5c.14-.14.3-.27.49-.4.19-.12.38-.23.57-.32l.95-.47c.1-.05.22-.1.36-.16.13-.06.23-.09.28-.09.1-.05.22-.06.35-.05.13.01.25,0,.35-.05s.25-.07.44-.07c.19,0,.36.03.51.09.24-.01.45.01.61.07.17.06.32.12.47.18.15.06.29.11.43.16s.28.1.43.16c.03.06.09.09.19.1.05,0,.09,0,.12.02.02-.06,0-.15-.04-.28-.05-.13-.06-.26-.05-.39-.11-.3-.22-.57-.32-.81-.1-.24-.16-.41-.17-.5-.06-.07-.1-.2-.13-.37-.03-.17.02-.26.14-.27.03-.04.12-.08.28-.13.15-.05.33-.1.53-.15.2-.05.4-.12.61-.19.21-.07.38-.14.53-.2.02,0,.05.04.1.14.05.1.07.19.08.26l1.55,2.89,1.53,3.34c.03.06.05.13.07.19.02.07.04.13.07.19.11.18.2.36.29.56.09.2.18.4.28.6.09.14.16.28.22.44.06.16.13.32.2.49.06.12.14.29.25.5.11.21.22.43.32.66s.21.45.3.67c.1.22.18.4.25.54l.07.15ZM40.43,23.63l-.04-.09c-.06-.12-.16-.41-.31-.85-.15-.44-.49-.92-1-1.44-.14-.14-.31-.27-.52-.4-.21-.13-.47-.18-.79-.16-.16.03-.32.04-.47.04-.15,0-.29.05-.42.14-.13.11-.26.28-.41.53-.15.24-.25.5-.3.77-.06.15-.07.29-.03.43.04.13.08.29.14.46.06.3.11.53.14.68.04.16.11.35.21.58.19.41.47.72.85.92.38.2.62.34.73.41.09.03.16.04.22.03.06-.01.16,0,.31.06.25,0,.46-.07.61-.22.15-.16.32-.34.5-.55l.18-.08c.14-.19.25-.36.32-.52.08-.16.12-.37.13-.62l-.06-.12Z"/>
        <path class="cls-1" d="M54.6,21.42c.17-.26.27-.51.32-.77.05-.26.03-.55-.06-.88-.05-.2-.16-.38-.32-.55-.16-.17-.37-.28-.62-.33-.58-.06-1.17-.11-1.77-.16-.6-.05-1.24-.05-1.9.01-.34-.03-.69-.05-1.06-.07s-.79-.02-1.26-.02c-.99-.18-1.72-.74-2.21-1.67-.11-.42-.22-.82-.33-1.22-.1-.39-.12-.83-.03-1.3.05-.34.1-.6.17-.77.06-.17.13-.31.21-.41.08-.1.16-.19.24-.28.08-.08.18-.19.28-.34.45-.33.85-.6,1.18-.79.34-.2.75-.42,1.25-.67.19-.17.39-.29.59-.37.2-.08.4-.14.6-.2l1.78-.48c.33-.09.64-.17.92-.26.28-.09.58-.16.89-.22.49-.11.95-.18,1.38-.23.43-.05.94-.09,1.52-.12.52-.07.9-.09,1.15-.06-.01.12,0,.31.03.56.03.25.07.5.11.75.01.04.02.08.01.12,0,.04,0,.08.01.12.03.11.01.18-.04.22-.04.03-.09.05-.15.04-.06,0-.13-.01-.2-.02-.38.06-.77.14-1.17.24-.39.11-.79.22-1.17.35-.39.13-.77.28-1.15.45-.38.17-.75.33-1.11.47-.16.09-.32.17-.46.25-.15.07-.29.15-.43.24-.16.09-.31.19-.43.29-.13.1-.26.23-.41.39-.15.32-.24.6-.27.85-.04.29-.02.57.05.83-.02.12.03.29.14.51.11.22.24.39.42.5.37.23.68.36.95.38.45,0,.87,0,1.28-.02s.78-.02,1.11-.01c.11-.03.24-.04.38-.03.14,0,.27,0,.38-.03.45-.07.87-.11,1.24-.1.38,0,.79.03,1.25.07.34.03.68.06,1.03.09.35.04.71.11,1.06.23.33.26.59.5.77.71.19.21.38.46.57.76l.23.85c.06.22.07.44.04.66-.04.22-.09.4-.17.54-.07.63-.36,1.24-.89,1.82-.34.42-.7.79-1.09,1.12-.39.33-.84.61-1.35.84-.68.44-1.4.78-2.14,1.01-.75.24-1.55.41-2.42.52l-1.85.32c-.2.03-.44.06-.72.09-.28.03-.56.03-.84.01-.4-.01-.69,0-.86.03-.17.03-.27.03-.3,0-.03-.04-.07-.07-.1-.1-.03-.03-.05-.05-.05-.07-.17-.21-.3-.42-.38-.62-.08-.2-.21-.44-.41-.72-.07-.1-.13-.19-.18-.27-.04-.08-.09-.16-.14-.25l-.03-.1s-.03-.07-.04-.09c-.02-.02-.02-.05,0-.1.11-.03.21-.04.29-.04.08,0,.18-.01.29-.04.28,0,.6-.02.96-.04.36-.02.64-.06.83-.12.2-.05.42-.11.66-.16.24-.05.52-.12.83-.2.27-.05.55-.11.83-.19.29-.08.56-.21.81-.39.05-.08.14-.18.28-.29.14-.11.28-.22.44-.35.15-.12.3-.25.45-.37.14-.12.24-.25.3-.38Z"/>
        <path class="cls-1" d="M70.32,19.58c.03.25.05.51.06.78.01.27.05.53.09.78.01.14.03.33.06.59.03.26.03.46.02.6.03.09.02.18-.04.26-.06.09-.11.15-.15.2l-.88.09c-.11.01-.24.02-.39.02s-.28.01-.39.02c-.09.05-.21.09-.37.11-.16.02-.32.03-.49.05-.17.02-.33.03-.48.03-.15,0-.23,0-.26,0-.12-.1-.19-.17-.21-.2-.02-.03-.03-.11-.04-.22l-.33-3.25-.27-1.99-.16-2.28-.23-1.96-.3-1.61c-.27.03-.6.07-.98.13-.38.06-.68.08-.88.06-.39-.03-.69-.02-.9.04-.21.06-.47.1-.79.13l-.22-2.17.2-.02c.11-.01.21-.03.29-.05.08-.02.14-.02.19,0,.12.08.29.09.5.04.21-.06.3-.1.28-.15.25-.05.4-.07.45-.08.06,0,.19-.02.39-.04.18-.02.45-.04.8-.06.35-.02.58-.05.69-.09-.03-.27-.05-.5-.07-.68-.02-.18-.04-.37-.06-.58-.02-.2-.04-.36-.05-.47,0-.43,0-.83-.03-1.18-.03-.35-.05-.75-.07-1.21,0-.32-.03-.62-.06-.92-.03-.29-.06-.6-.09-.92-.03-.32-.05-.71-.07-1.17-.01-.47-.05-.88-.11-1.24-.01-.11-.04-.18-.07-.22-.04-.03-.06-.1-.07-.21s0-.2,0-.26c.02-.06.08-.09.19-.11.2-.02.42-.03.65-.03s.44-.01.65-.03c.34-.03.65-.07.93-.09.28-.03.51-.04.7-.04.34.01.61.03.79.06.02.2.04.38.05.53.02.15.02.3.03.46,0,.16.01.31.03.44.03.57.07,1.06.11,1.48.04.42.1.91.18,1.47.03.25.04.51.06.78.02.27.05.53.1.78,0,.07.02.22.03.44.01.23.02.47.02.73,0,.26,0,.51,0,.73,0,.23,0,.38.01.44.01.11.04.21.1.3.05.09.1.13.15.12.11-.01.26,0,.45,0,.18.02.33.02.45,0,.11-.01.23,0,.36.02.13.02.3.02.53,0,.2-.02.41-.04.63-.05.22,0,.45-.03.7-.05.04,0,.09,0,.14,0s.09,0,.14,0h.13c.15.31.24.69.29,1.12.04.43.02.76-.07,1l-.2.02c-.45.09-.88.17-1.31.25-.43.08-.86.14-1.32.18-.11.01-.25.03-.4.06-.16.03-.29.05-.41.06,0,.05,0,.1,0,.15s0,.11,0,.15v.14s.04.3.04.3c.02.2.04.39.07.56.03.17.04.34.04.53l.25,1.79.02,1.54c.01.11.03.31.04.59.02.28.04.59.06.92s.03.64.04.92c0,.28.01.48.03.6Z"/>
        <path class="cls-1" d="M86.2,13.98c0,.11-.07.22-.19.33-.07.06-.18.11-.31.12-.14.02-.26.02-.38.02-.16.04-.36.05-.58.04-.23-.01-.42-.02-.58-.03-.32-.02-.56-.02-.71-.02-.16,0-.42.02-.79.05l-2.05.07-.02.41c-.01.25.01.5.07.74.06.24.17.49.34.75.1.19.23.36.38.53.15.17.31.28.46.33.13.05.26.1.37.16s.22.1.32.13c.1.04.2.05.29.03.61.03,1.06-.02,1.35-.14.29-.12.64-.28,1.06-.46.09,0,.19-.04.3-.12.11-.08.18-.14.23-.16.12-.04.29-.15.51-.32.22-.17.39-.28.51-.32.07.05.08.2.05.46-.04.26-.04.5,0,.73l-.02.37-.03.68c-.12.13-.21.22-.27.28-.06.05-.11.1-.14.15-.04.04-.09.1-.16.16-.07.07-.18.16-.32.29-.43.39-.87.64-1.33.75-.26.12-.53.21-.83.25-.3.04-.54.09-.72.15-.12.02-.22.03-.31.04-.09,0-.18,0-.27,0h-.27c-.43-.03-.85-.06-1.26-.09-.41-.03-.83-.17-1.28-.42-.16.01-.38-.04-.66-.17-.28-.13-.46-.25-.54-.37-.24-.15-.46-.33-.64-.54-.18-.21-.38-.4-.6-.57-.31-.24-.52-.49-.65-.75-.12-.26-.24-.52-.34-.8-.1-.21-.19-.44-.27-.7-.08-.25-.16-.51-.24-.76.01-.25.02-.49.02-.72s0-.45.02-.68l.06-1.26c.02-.41.13-.89.33-1.45.2-.56.43-1.04.7-1.43.07-.09.16-.17.25-.26.07-.09.16-.17.27-.26.11-.08.22-.18.34-.29.07-.02.14-.05.23-.09.08-.04.2-.1.37-.19.07-.04.16-.12.27-.23.11-.11.25-.18.44-.22.25-.08.5-.16.73-.25.23-.09.4-.13.52-.13.16,0,.45.03.87.08.42.04.82.09,1.2.13.2.03.37.08.51.13.13.05.23.08.3.08.18.03.33.06.46.09.12.03.25.07.39.12.4.16.69.31.88.47.19.16.34.32.47.48.08.12.16.25.24.4.07.15.15.29.24.4.11.14.2.33.3.58.09.24.15.48.19.71.04.18.06.42.07.72,0,.3,0,.56,0,.78,0,.23-.02.4-.04.51-.02.11-.03.27-.04.48ZM83.37,11.86s0-.13.01-.25c0-.12-.01-.21-.06-.26-.17-.3-.41-.49-.74-.56-.33-.07-.62-.09-.87-.06-.16.04-.27.09-.31.16s-.12.16-.22.3c-.05.04-.08.09-.11.13-.03.04-.06.09-.11.13-.05.04-.08.1-.09.18-.02.08-.04.15-.06.22-.05.11-.08.19-.08.24,0,.05.01.16.05.34.09.05.26.1.52.15.26.05.53.08.81.09.28.01.56,0,.82-.01.26-.02.44-.05.53-.09.02-.02,0-.08-.04-.19-.05-.1-.07-.27-.06-.5Z"/>
        <path class="cls-1" d="M104.17,4.61c.25.11.6.24,1.07.39.47.15.9.3,1.3.47.41.15.7.24.89.29.19.04.35.09.48.14.15.05.3.14.44.27l-.76,2.08c-.22.6-.41,1.09-.57,1.48-.17.39-.31.71-.42.97-.12.26-.22.47-.3.63-.08.16-.15.32-.21.47l-.73,2.02c-.07.19-.14.41-.2.65-.06.24-.13.42-.2.54-.13.15-.21.34-.24.56-.02.11-.06.26-.13.44-.07.18-.13.37-.2.56s-.13.37-.2.54c-.06.17-.1.3-.11.4-.08.21-.2.54-.38.99-.17.44-.35.9-.54,1.38-.19.48-.37.94-.54,1.38-.17.44-.29.78-.34,1l1.41.51c.18.16.37.26.55.29.18.03.35.12.51.28l1.95.71c.43.28.9.52,1.42.73.51.21.99.37,1.44.49l1.28.47c0,.05.02.1.05.16,0,.05.01.1.02.15s0,.1-.01.14c-.07.12-.14.28-.21.48-.07.2-.15.4-.22.59-.07.19-.14.35-.21.49-.07.13-.12.19-.14.18l-1.54-.56c-.54-.17-1.01-.32-1.39-.45-.39-.13-.77-.26-1.16-.4l-1.66-.61c-.31-.21-.6-.36-.88-.47-.28-.1-.57-.21-.86-.31l-.35-.13c-.17-.06-.34-.13-.52-.21-.18-.08-.37-.14-.57-.19-.3-.11-.68-.22-1.14-.34-.46-.12-.87-.24-1.21-.37l-1.28-.47c0-.34.04-.63.12-.88.08-.25.15-.47.22-.66l.58-1.6c.17-.13.26-.3.27-.5.01-.2.06-.41.13-.62l.79-1.96c.11-.44.26-.88.44-1.31.18-.43.35-.86.5-1.28,0-.09.04-.22.11-.4.06-.17.13-.35.2-.54.07-.19.14-.38.2-.56.07-.18.11-.33.12-.44.03-.23.12-.42.24-.56.07-.12.13-.3.2-.54.06-.24.13-.46.2-.65l2.29-6.3Z"/>
        <path class="cls-1" d="M124.11,27.66c-.06.1-.17.17-.32.21-.09.02-.21.01-.33-.04-.13-.05-.24-.1-.34-.16-.16-.04-.34-.12-.53-.24-.2-.12-.36-.21-.5-.3-.27-.16-.48-.28-.62-.35-.14-.07-.38-.18-.72-.33l-1.84-.9-.21.35c-.13.21-.22.44-.29.68-.06.24-.08.51-.05.82,0,.21.03.43.09.65.05.22.14.39.25.51.09.11.18.21.25.31.07.1.15.19.22.27.07.08.15.14.24.16.53.31.95.48,1.26.51.31.03.7.06,1.15.09.08.05.18.06.32.03.13-.03.23-.04.28-.03.12.02.32,0,.6-.04.28-.05.48-.06.6-.04.04.07-.02.22-.18.43-.15.21-.27.43-.34.65l-.19.32-.35.59c-.17.06-.29.1-.37.12-.08.02-.14.04-.19.06-.05.02-.13.04-.22.07-.09.02-.23.06-.42.11-.56.14-1.07.16-1.53.04-.29-.01-.57-.07-.85-.17-.28-.1-.52-.17-.71-.2-.11-.04-.21-.08-.29-.11-.08-.04-.16-.08-.24-.12l-.23-.14c-.37-.22-.73-.44-1.08-.66-.34-.22-.66-.54-.93-.97-.15-.06-.32-.21-.5-.46-.19-.24-.29-.44-.31-.58-.14-.25-.25-.5-.31-.78-.06-.27-.15-.54-.26-.79-.16-.36-.23-.68-.22-.96,0-.28.04-.57.08-.86,0-.23.04-.48.08-.74l.15-.78c.13-.21.24-.42.35-.62.11-.2.22-.4.33-.59l.64-1.08c.21-.35.53-.73.97-1.13.44-.4.87-.71,1.29-.94.1-.04.22-.08.34-.11.11-.04.22-.08.36-.1.13-.03.28-.06.43-.1.07.02.15.02.24.02.09,0,.23,0,.41,0,.08,0,.2-.03.34-.07.14-.05.31-.04.49.01.26.05.52.09.76.12.25.03.42.07.52.13.14.08.38.24.73.47.35.23.68.46,1,.68.16.12.29.24.39.35.09.11.17.18.23.21.14.11.26.21.36.29s.19.18.28.29c.28.33.47.6.56.83.09.23.15.44.19.65.02.14.03.3.02.47s0,.32.02.47c.03.18.02.39,0,.65s-.09.5-.17.71c-.05.18-.15.4-.28.67-.13.26-.26.5-.37.69-.12.2-.21.34-.27.43-.07.09-.15.23-.26.4ZM122.61,24.47s.07-.11.13-.22c.06-.11.09-.19.07-.25,0-.35-.13-.63-.39-.85-.25-.22-.5-.37-.74-.46-.16-.04-.28-.05-.35-.01s-.19.09-.33.16c-.06.02-.11.04-.16.06-.04.03-.09.05-.16.06-.06.02-.12.06-.17.12-.05.06-.1.12-.16.16-.1.07-.16.13-.18.17-.02.04-.06.15-.12.33.05.09.19.21.39.37.21.16.43.32.68.46.24.14.49.27.73.37.24.1.41.16.51.17.03,0,.05-.07.05-.19,0-.12.06-.27.18-.47Z"/>
        <path class="cls-1" d="M129.19,37.9c.3,0,.58-.05.82-.16.24-.1.48-.28.71-.53.14-.15.23-.34.28-.57.05-.23.03-.46-.06-.7-.27-.52-.55-1.04-.84-1.57-.29-.53-.64-1.06-1.05-1.58-.16-.3-.34-.6-.52-.92-.19-.32-.41-.67-.67-1.06-.39-.93-.33-1.85.18-2.76.29-.32.57-.63.84-.94.27-.3.63-.55,1.07-.74.31-.15.56-.24.73-.28.17-.04.33-.06.46-.05.13,0,.25.03.36.05.11.03.26.04.44.05.53.2.96.38,1.31.55.35.17.76.4,1.25.68.24.07.46.16.63.29.18.13.34.26.49.39l1.37,1.22c.25.23.49.43.72.62.23.19.45.4.67.62.36.35.67.69.95,1.03s.59.74.94,1.2c.34.4.57.71.68.93-.11.05-.26.16-.45.33-.19.16-.38.33-.56.5-.03.03-.06.06-.09.08-.03.02-.06.04-.09.08-.08.08-.15.11-.21.08-.05-.01-.09-.05-.11-.1-.03-.05-.06-.11-.09-.18-.26-.29-.54-.57-.84-.84-.3-.27-.62-.54-.94-.79-.32-.26-.66-.49-1-.71-.35-.22-.69-.44-1-.67-.17-.09-.32-.17-.46-.25-.14-.08-.29-.16-.43-.23-.17-.09-.33-.15-.48-.2s-.34-.09-.55-.13c-.35.05-.63.13-.85.24-.27.13-.49.29-.67.5-.11.05-.23.19-.35.39-.12.21-.19.42-.19.63,0,.43.08.77.2,1,.25.37.49.72.72,1.06.24.33.44.64.62.92.08.08.16.18.23.3.07.12.15.22.23.3.31.34.56.66.77.98.2.32.41.68.63,1.09.16.3.32.6.49.91.16.31.29.65.39,1.01-.04.42-.1.77-.17,1.03-.07.27-.18.57-.32.9l-.59.66c-.15.17-.33.3-.53.39-.2.09-.39.14-.55.15-.56.29-1.23.38-2.01.26-.53-.05-1.04-.15-1.54-.3-.49-.15-.97-.37-1.44-.67-.74-.33-1.42-.74-2.02-1.24-.61-.5-1.19-1.07-1.76-1.73l-1.28-1.37c-.14-.15-.29-.34-.46-.55-.17-.22-.33-.45-.47-.7-.21-.34-.38-.57-.5-.69-.12-.12-.17-.21-.16-.26.01-.05.02-.09.03-.13,0-.04.01-.07.03-.09.08-.26.19-.48.31-.66.13-.18.25-.42.38-.73.04-.11.08-.21.13-.3.04-.08.09-.17.13-.25l.07-.08s.05-.06.06-.09.03-.05.08-.06c.08.08.15.15.19.22.04.07.11.14.19.22.16.23.35.49.56.78.22.28.4.5.55.63.15.14.32.29.5.47.18.17.39.37.62.58.19.2.39.4.61.59.22.2.48.35.77.46.1,0,.23.02.39.07.16.06.34.11.53.18.19.06.37.12.55.17.18.05.34.07.48.04Z"/>
        <path class="cls-1" d="M139.91,49.76c.3.06.58.07.84.02.26-.05.53-.17.8-.37.17-.12.3-.29.4-.5.1-.21.13-.44.08-.69-.16-.56-.32-1.13-.49-1.71-.17-.58-.4-1.17-.7-1.77-.1-.32-.2-.66-.32-1.01-.12-.35-.26-.74-.44-1.18-.19-.99.07-1.87.76-2.66.35-.25.69-.5,1.02-.74.33-.24.73-.41,1.2-.49.34-.08.6-.12.78-.12.18,0,.33.01.46.05.12.04.24.08.35.13.11.05.25.09.42.14.47.3.86.57,1.16.82.3.24.66.55,1.07.92.22.12.41.26.56.42.15.16.28.32.4.49l1.08,1.49c.2.28.39.53.58.76s.36.48.53.75c.28.42.51.82.71,1.21.2.39.42.85.66,1.37.25.46.41.81.47,1.05-.12.03-.29.1-.51.23-.22.12-.44.24-.66.37-.04.03-.07.05-.11.06-.04.01-.07.03-.11.06-.09.07-.17.08-.22.04-.05-.02-.08-.07-.09-.12-.02-.06-.03-.12-.05-.19-.19-.34-.41-.67-.65-1-.24-.33-.49-.65-.75-.97-.26-.32-.54-.62-.83-.91-.3-.29-.58-.58-.84-.86-.14-.12-.28-.23-.4-.34-.12-.11-.25-.21-.38-.31-.14-.12-.29-.22-.43-.3-.14-.08-.31-.16-.51-.24-.35-.02-.65,0-.89.06-.29.07-.54.18-.76.34-.12.03-.26.13-.43.31-.17.18-.27.37-.32.57-.08.43-.09.77-.01,1.02.16.42.32.81.48,1.19.16.37.3.72.41,1.03.07.09.12.21.17.34.04.14.1.25.17.34.23.39.41.77.54,1.12.13.35.26.75.38,1.19.1.32.19.66.28,1,.09.34.15.7.17,1.08-.13.4-.26.73-.38.98-.13.25-.3.52-.5.81l-.72.52c-.18.13-.38.22-.6.27-.22.05-.41.06-.57.03-.61.16-1.28.11-2.02-.17-.51-.16-.99-.37-1.44-.62s-.87-.57-1.26-.95c-.66-.48-1.23-1.02-1.72-1.63-.49-.61-.94-1.3-1.36-2.07l-.96-1.61c-.1-.18-.22-.39-.34-.64-.12-.25-.23-.51-.31-.78-.14-.38-.25-.64-.34-.78s-.12-.24-.1-.28c.02-.05.04-.09.06-.12.01-.04.03-.06.05-.08.13-.24.28-.43.44-.58.16-.15.34-.36.53-.64.06-.1.13-.19.19-.26.06-.07.12-.14.18-.22l.08-.06s.06-.05.07-.07.04-.04.09-.05c.07.09.11.18.14.25.03.08.08.16.14.25.11.26.23.55.39.88.15.32.29.57.41.73.12.17.25.35.39.56.14.21.3.44.49.7.14.23.3.47.47.71.17.24.39.44.66.62.09.01.22.07.37.16.15.09.31.18.48.28.17.1.34.2.5.29.16.09.32.14.46.15Z"/>
      </g>
      <path class="cls-1" d="M48.78,146.77c-.08.24-.17.48-.26.74-.1.25-.17.5-.23.75-.04.13-.11.32-.19.56-.08.25-.16.43-.22.56,0,.09-.06.17-.15.22-.09.05-.16.1-.22.12l-.84-.28c-.11-.04-.23-.08-.37-.14-.14-.06-.26-.1-.37-.14-.1.01-.23,0-.38-.05-.15-.05-.31-.1-.47-.15s-.31-.11-.45-.17-.22-.09-.24-.1c-.07-.14-.11-.23-.11-.27s.02-.11.05-.22l1.03-3.1.57-1.93.78-2.14.59-1.89.38-1.59c-.26-.09-.57-.18-.95-.28-.37-.1-.65-.2-.83-.31-.34-.19-.62-.3-.84-.33-.22-.04-.47-.1-.77-.2l.69-2.07.19.06c.11.04.2.06.28.07.08.01.14.04.17.07.08.12.23.2.44.24.22.04.32.03.31-.02.24.06.39.09.45.11.05.02.18.06.37.12.17.06.42.15.75.27.33.12.55.19.67.2.09-.26.16-.47.21-.65.06-.17.12-.36.18-.55.06-.19.11-.34.15-.45.18-.4.33-.76.45-1.09.12-.33.26-.71.43-1.13.12-.29.23-.58.32-.86.09-.28.19-.57.29-.87.1-.3.24-.67.42-1.1.18-.43.31-.82.41-1.17.04-.11.04-.18.02-.23s-.01-.12.02-.23c.04-.11.07-.19.11-.23.04-.05.11-.05.22-.02.19.06.4.14.6.24.21.09.41.17.6.24.32.11.62.21.89.29.27.09.49.17.65.25.31.15.54.28.7.38-.06.19-.12.36-.17.5-.05.14-.1.28-.16.43-.06.15-.11.29-.16.41-.2.53-.37,1-.5,1.4-.13.4-.28.87-.43,1.42-.08.24-.17.48-.26.74-.1.26-.17.51-.23.75-.02.07-.07.2-.16.42-.08.21-.18.44-.28.68-.1.24-.2.47-.3.67-.09.21-.15.34-.17.41-.04.11-.05.21-.03.31.02.1.04.16.09.17.11.04.24.1.4.19.16.09.3.15.4.19.11.04.21.09.32.16.11.07.27.14.48.21.19.06.39.14.59.21.2.08.42.16.66.24.04.01.08.03.12.06.04.03.08.04.12.06l.13.04c0,.36-.07.74-.2,1.15-.14.41-.29.7-.47.88l-.19-.06c-.45-.1-.88-.2-1.3-.31s-.85-.23-1.28-.37c-.11-.04-.24-.07-.39-.11-.15-.04-.29-.08-.39-.11-.01.04-.04.09-.06.14-.03.05-.05.1-.06.14l-.04.13-.1.29c-.06.19-.12.37-.16.54-.04.17-.1.33-.18.5l-.5,1.73-.61,1.41c-.04.11-.1.29-.2.56-.1.27-.21.55-.32.86-.12.31-.23.59-.34.86-.11.26-.18.45-.22.55Z"/>
      <path class="cls-1" d="M33.4,122.35c-.25.18-.46.42-.63.72-.17.3-.35.58-.54.83-.07-.05-.22-.13-.45-.23-.23-.1-.43-.2-.6-.3-.07-.05-.15-.12-.24-.2-.08-.08-.16-.13-.23-.15l-.6-.28-1.53-1.14c-.4-.27-.74-.52-1.03-.75-.29-.23-.63-.49-1.01-.78-.07-.05-.18-.12-.33-.21-.15-.08-.25-.15-.29-.21-.07.09-.13.16-.19.2-.06.04-.12.11-.19.2-.02.07-.11.21-.26.44-.15.23-.33.47-.51.74-.19.27-.36.52-.51.74-.15.22-.25.36-.29.42l-.92,1.23c-.11.15-.19.27-.25.36-.06.1-.13.24-.22.43l1.58,1.18c.29.22.56.43.8.64.24.21.52.43.83.66.16.12.35.28.57.47.21.19.4.31.55.37-.1.18-.22.36-.33.56-.12.2-.23.37-.34.51l-.33.44c-.07-.05-.22-.15-.43-.28s-.41-.25-.59-.35l-1.15-.85c-.41-.22-.76-.44-1.07-.67-.31-.23-.66-.49-1.04-.77-.07-.05-.17-.11-.29-.18-.12-.06-.2-.12-.25-.18l-.75,1.01c-.19.26-.38.52-.58.8-.2.28-.34.54-.43.78-.24.33-.47.64-.67.92-.2.29-.39.55-.57.79l-.35.46s.16.1.32.28c.16.18.37.39.61.63.25.24.46.44.64.6s.33.33.45.5c.06.11.24.27.54.51.29.23.49.38.58.45.42.39.83.76,1.26,1.11s.85.7,1.28,1.08l.98.73c.07.05.17.1.28.14.11.04.19.07.22.1-.15.4-.34.75-.56,1.07-.22.32-.45.63-.68.94-.21-.02-.43-.11-.65-.27-.22-.16-.43-.31-.65-.44-.13-.1-.26-.21-.39-.33-.13-.13-.27-.24-.42-.35-.38-.25-.81-.58-1.3-.97-.49-.39-.93-.7-1.32-.94l-.41-.31c-.17-.19-.43-.42-.77-.7-.34-.28-.6-.49-.79-.63-.19-.17-.51-.4-.97-.7-.46-.3-1.2-.82-2.24-1.56-.04-.03-.16-.12-.37-.28-.21-.15-.44-.32-.69-.49-.25-.17-.49-.34-.7-.48-.22-.15-.34-.23-.38-.26.28-.38.54-.77.77-1.17.23-.4.45-.75.68-1.06.13-.18.28-.4.44-.65.16-.25.32-.44.47-.58.47-.56.91-1.12,1.32-1.69.41-.57.83-1.15,1.27-1.73.09-.13.26-.36.48-.7.23-.34.46-.65.69-.93l.57-.89c.08-.14.26-.36.56-.67.3-.3.53-.59.7-.86.29-.43.55-.82.77-1.15s.48-.72.79-1.17c.27-.4.55-.77.86-1.12s.59-.7.84-1.05c.07-.09.13-.16.19-.22.06-.06.16-.09.3-.09l1.35,1.09c.26.22.57.46.94.7.37.25.68.48.94.7.07.05.14.1.22.14.07.04.14.09.21.14.05.04.17.13.36.27.18.13.37.28.57.43.2.15.38.28.55.41.16.12.26.21.28.25s.12.15.29.3c.17.15.3.26.39.33.05.04.14.1.26.17.12.07.23.15.35.24s.23.17.34.25c.11.08.19.14.25.18.17.19.35.34.53.46.18.12.36.26.55.43.02.01.11.09.28.23.17.14.35.3.56.48.21.18.39.34.56.48.17.14.26.21.28.23Z"/>
      <path class="cls-1" d="M37.16,144.42l-.23-.08c-.11-.03-.18-.06-.21-.09-.03-.03-.12-.08-.28-.16-.02-.01-.09-.03-.2-.06-.11-.03-.23-.07-.36-.11-.13-.04-.27-.11-.4-.19s-.23-.17-.29-.25c-.1-.05-.17-.1-.2-.14-.03-.04-.1-.09-.2-.14-.06-.13-.05-.28.02-.45s.14-.3.19-.4l.39-.76-.41.21-.81.23c-.27.04-.5.07-.68.09-.18.02-.38.04-.62.04-.4.03-.79-.02-1.17-.15s-.73-.26-1.03-.42-.59-.38-.86-.67c-.27-.29-.51-.56-.72-.79-.07-.06-.13-.14-.17-.22s-.09-.17-.13-.24c-.07-.16-.15-.34-.25-.51s-.17-.35-.22-.5c-.04-.07-.07-.15-.1-.22s-.07-.16-.13-.24c-.07-.11-.11-.26-.12-.44.01-.27,0-.56-.04-.85-.04-.29-.04-.6,0-.94.05-.25.08-.51.09-.76,0-.25.05-.47.15-.65.05-.1.13-.28.24-.53s.18-.43.24-.53c.09-.18.17-.32.23-.42s.15-.24.25-.44c.05-.1.12-.2.21-.3.09-.09.2-.22.33-.38.15-.2.31-.42.46-.66.15-.24.29-.43.41-.57.28-.19.46-.3.54-.34.08-.03.18-.12.31-.26.1-.1.24-.23.41-.38s.35-.25.54-.28c.08,0,.21-.03.38-.07.17-.04.36-.08.55-.14s.36-.1.51-.14c.15-.04.24-.05.28-.03l.67.04c.19.02.4.07.61.15s.42.16.6.25l.95.45c.1.05.22.11.35.18s.21.12.24.16c.1.05.19.13.26.25.07.11.15.19.26.25.1.05.21.15.32.3.12.15.2.3.24.45.16.19.27.36.32.53.05.17.1.33.15.48.05.15.09.3.14.44.04.14.09.28.14.44-.03.06-.02.13.04.21.03.04.05.08.06.11.06-.02.13-.09.2-.2.07-.12.16-.21.28-.28.17-.27.31-.52.45-.75.13-.23.22-.37.29-.45.02-.09.09-.2.21-.33.12-.13.22-.15.3-.06.05,0,.14.05.27.14.13.09.28.2.45.33.17.12.34.25.52.37.18.12.34.21.48.29.02.01,0,.07-.05.17-.05.1-.11.18-.16.23l-1.32,3-1.69,3.27c-.03.06-.07.12-.11.17s-.08.11-.11.17c-.07.19-.16.38-.26.57-.1.19-.2.39-.3.59-.05.15-.12.3-.21.45-.09.15-.18.3-.26.46-.06.12-.14.29-.24.51-.1.22-.21.44-.32.66-.11.22-.23.44-.34.65-.11.21-.2.39-.27.53l-.08.15ZM35.62,137.84l.05-.09c.06-.12.22-.38.48-.77.25-.39.43-.95.52-1.67.02-.19.02-.41,0-.66-.03-.24-.15-.48-.35-.72-.12-.11-.23-.23-.32-.34-.1-.11-.22-.2-.37-.25-.16-.03-.39-.03-.67,0-.28.03-.55.11-.8.24-.15.05-.27.13-.35.24s-.18.24-.28.39c-.2.23-.34.41-.45.54s-.21.3-.33.52c-.21.4-.28.82-.2,1.24s.12.7.13.83c.03.09.07.16.11.19.04.04.09.13.14.28.15.21.33.32.55.34s.46.04.74.06l.18.09c.23,0,.44-.03.61-.07.17-.04.36-.13.57-.28l.06-.12Z"/>
      <path class="cls-1" d="M84.44,140.72c-.15-.13-.3-.27-.47-.41s-.35-.31-.56-.5c-.41-.34-.78-.68-1.1-1.01-.32-.33-.56-.54-.69-.62l-1.18-.84c-.09-.07-.19-.17-.32-.31-.13-.13-.22-.23-.28-.28-.15-.13-.29-.26-.43-.41-.14-.14-.28-.26-.42-.37-.17-.14-.39-.33-.64-.55s-.39-.33-.41-.32l.39,1.48.41,2.74c.03.11.08.35.15.72.08.37.15.76.23,1.19.08.42.16.82.23,1.19s.13.61.15.72c.09.47.15.89.2,1.25.04.36.13.77.26,1.23.05.22.09.43.1.62.01.2.06.4.13.62.03.11.05.21.08.31s.04.21.04.32c.1.3.17.62.23.94.05.33.12.64.19.95-.24.17-.46.3-.66.37-.21.07-.46.15-.77.22-.08.04-.2.09-.34.13s-.28.09-.41.13-.24.08-.32.11c-.09.03-.12.05-.1.04-.11.03-.23.07-.37.12-.14.06-.3.11-.47.15-.09.02-.18.04-.27.05-.09.01-.19-.03-.31-.12l-.11-1.06-.05-.2c-.1-.33-.2-.65-.3-.96s-.16-.6-.17-.85c-.01-.14-.04-.32-.08-.54s-.09-.46-.15-.7c-.06-.24-.12-.48-.17-.71-.06-.23-.12-.43-.18-.6-.13-.34-.23-.64-.3-.89s-.18-.66-.31-1.24c-.09-.47-.17-.84-.23-1.1-.06-.27-.16-.63-.3-1.09l-.07-.3c-.07-.31-.16-.58-.25-.82-.09-.23-.15-.44-.17-.62-.02-.48-.11-.95-.25-1.39-.14-.44-.25-.93-.33-1.44-.07-.38-.15-.75-.25-1.1s-.19-.71-.28-1.09c-.09-.37-.16-.75-.22-1.14-.06-.38-.13-.76-.22-1.14-.04-.18-.05-.29-.03-.33s.13-.08.3-.13l3.41-.82c.14.08.31.23.53.45s.4.39.54.52c.23.18.46.39.7.64.23.25.44.47.63.65.27.33.52.57.77.73.25.15.48.38.69.67.14.08.26.19.37.31.11.12.22.22.33.29.15.15.35.34.59.56s.47.4.69.54c.38.31.71.59.99.85.28.26.62.53,1.02.81.24.2.44.38.62.55.18.17.38.35.59.56.23.16.47.34.74.54.27.2.58.43.91.67.04-.03.1-.13.19-.31.09-.17.15-.32.19-.45.15-.25.29-.55.43-.91.13-.36.27-.68.41-.97l.17-.74c.02-.1.06-.19.11-.29s.09-.18.11-.25l.57-1.57c.03-.24.15-.56.35-.96.2-.4.37-.86.52-1.39l.12-.24c.13-.43.24-.83.34-1.22s.18-.78.27-1.2c.06-.32.15-.58.25-.78.1-.2.2-.46.28-.79.05-.2.07-.32.07-.38,0-.06.01-.16.05-.31l3.01-.73c.4,0,.67-.02.83-.06.15-.04.27-.06.33-.08.11-.03.22-.05.32-.06.1-.01.24-.04.42-.08l.33,1.36c0,.4.03.74.09,1.03s.12.58.19.86l.8,3.34c.1.4.2.78.31,1.14.11.36.22.75.32,1.17.05.11.09.22.12.34.03.12.06.25.09.38.08.24.13.41.14.53.01.11.06.29.14.52l.1.43c0,.14.04.37.1.69.05.33.11.66.17,1.01.06.35.12.68.19,1,.07.32.11.55.15.68.04.18.11.39.19.65.09.26.15.48.19.65.11.44.21.9.31,1.38.1.48.15.96.16,1.45l.18.76c-.06.13-.16.22-.3.27-.14.05-.27.08-.38.11-.21,0-.42.04-.62.11-.21.07-.35.12-.44.14l-2.55.61c-.12-.3-.23-.6-.32-.9-.1-.3-.18-.6-.25-.89-.03-.13-.07-.32-.12-.57s-.1-.51-.17-.78c-.07-.28-.13-.53-.19-.78-.06-.24-.11-.43-.17-.56-.04-.15-.08-.39-.14-.72-.05-.33-.1-.57-.14-.72l-.3-1.12c-.05-.22-.1-.4-.15-.54-.05-.14-.08-.27-.11-.38l-.22-.61s-.02-.1-.03-.19c0-.08-.02-.14-.03-.19-.21-.49-.34-.98-.37-1.49-.04-.5-.14-.98-.29-1.44-.01-.16-.04-.3-.07-.44-.03-.13-.06-.26-.1-.4l-.48-1.71-.09-.36-.15-.03s-.02.05-.02.07c-.22.33-.41.68-.56,1.03-.15.35-.29.74-.42,1.17l-.64,1.87c-.06.23-.14.48-.24.77-.09.29-.19.59-.28.89-.09.3-.18.59-.27.85-.09.27-.18.49-.27.68-.05.1-.11.26-.19.47-.08.21-.17.43-.26.67-.09.24-.18.49-.27.75-.09.26-.18.49-.27.7l-.09.23c-.1.07-.24.12-.43.16s-.34.06-.45.09c-.2.05-.4.1-.59.16-.2.06-.39.11-.59.16-.22-.13-.45-.33-.71-.6-.25-.27-.46-.47-.64-.62l-.58-.52Z"/>
      <path class="cls-1" d="M103.42,128.75c.14-.09.31-.2.5-.35s.4-.25.62-.31c.28-.08.54-.16.78-.24.24-.08.5-.16.78-.24.22-.06.43-.12.64-.16s.41-.06.61-.05c.04-.01.1-.02.17-.01.07,0,.18.05.32.12.24,0,.47.06.71.15s.47.23.7.41.44.35.65.54c.21.19.39.38.56.57.16.15.29.36.41.63.11.28.23.49.34.65.09.31.18.6.3.87.11.28.21.57.3.87.14.5.26.99.37,1.45.11.47.23.95.37,1.45l.24,1.1c.02.09.02.25,0,.5-.03.24-.04.42-.03.54,0,.24-.02.52-.05.84-.03.33-.06.52-.09.57-.08.14-.13.26-.15.36-.02.1-.03.2-.04.29,0,.1-.03.19-.07.27s-.11.17-.22.27c-.1.07-.21.18-.33.32s-.24.27-.35.4c-.1.07-.14.13-.13.16s-.06.09-.2.18l-.55.3c-.25.12-.46.19-.63.21-.17.02-.35.06-.55.12-.61.17-1.26.22-1.94.15-.2.05-.4.06-.61.03-.21-.04-.38-.09-.49-.18-.13-.06-.27-.12-.41-.19-.14-.07-.27-.14-.41-.22-.23-.15-.43-.3-.59-.47-.16-.17-.33-.34-.5-.53-.18-.21-.36-.42-.57-.64-.2-.22-.37-.47-.5-.76-.18-.49-.35-.94-.5-1.34-.15-.41-.28-.82-.4-1.23l-.38-1.34s-.07-.12-.11-.25c-.04-.13-.05-.22-.04-.27-.03-.11-.06-.23-.08-.35-.02-.12-.04-.24-.05-.36-.03-.18-.06-.36-.11-.53-.05-.17-.04-.36.02-.57,0,.05,0,0,.02-.13.02-.14.04-.28.07-.44.03-.16.05-.3.06-.42.01-.12.02-.17.03-.15l.11-.49c.05-.08.09-.18.13-.29.04-.1.11-.23.2-.37.09-.14.21-.33.37-.56.16-.23.39-.52.69-.87ZM107.34,133.53c-.09.02-.16.09-.21.2-.05.11-.08.2-.08.27-.06.37-.06.66,0,.88.16.59.48.93.95,1.01.11-.03.19-.1.25-.19.05-.1.07-.19.05-.28-.06-.22-.11-.48-.13-.78-.02-.3-.13-.59-.33-.86-.14-.08-.23-.15-.27-.21-.04-.06-.12-.07-.22-.04Z"/>
      <path class="cls-1" d="M115.44,132.09c-.07-.14-.18-.36-.31-.65-.13-.29-.28-.56-.43-.81-.07-.19-.16-.38-.25-.56-.09-.18-.19-.37-.29-.58l-1.34-2.41-.69-1.37c.22-.11.45-.24.69-.37.24-.13.52-.26.84-.37.09-.02.18-.05.26-.09l.43-.22c.16-.03.24-.05.24-.06,0,0,.03,0,.12,0,.05.1.08.18.08.24,0,.06.03.14.09.24l.49.97c.03-.14.04-.26.04-.34,0-.09.02-.21.07-.36l.15-.15c.13-.4.37-.73.71-1.01.34-.28.72-.49,1.12-.65.08-.04.23-.07.45-.09.22-.02.44-.03.68-.02.15-.05.29-.07.43-.06l.14.04c.3.08.57.14.82.18s.47.14.65.3c.35.18.66.4.95.66.29.26.58.56.87.89.05.1.09.2.11.29.02.09-.02.16-.12.21-.25.26-.51.44-.77.56-.26.12-.59.31-.99.56l-.33.17c-.05,0-.09-.02-.12-.05-.03-.03-.05-.06-.06-.08-.08-.11-.16-.21-.24-.28-.08-.08-.13-.14-.16-.21-.02-.04-.06-.09-.11-.14-.05-.05-.1-.09-.14-.12-.07-.04-.13-.07-.17-.11-.58-.19-1.05-.19-1.42,0-.04.02-.1.05-.17.09s-.13.09-.17.16c-.08.09-.19.23-.34.42-.15.19-.23.33-.26.42-.05.15-.1.31-.16.48-.06.17-.08.34-.07.51.02.09.07.24.16.43.09.2.14.32.16.36.05.2.14.47.25.79s.23.6.34.82c.07.14.15.33.23.57.08.24.17.45.26.63.07.14.13.28.19.4s.11.25.17.37l.59,1.15c.06.12.12.26.19.4.06.15.13.29.2.43l.34.67c-.9.74-1.6,1.09-2.09,1.07-.11-.12-.23-.28-.36-.48-.13-.2-.19-.33-.19-.38-.15-.38-.32-.75-.53-1.11-.21-.35-.41-.72-.6-1.11-.12-.19-.23-.4-.32-.64-.09-.23-.19-.44-.28-.62Z"/>
      <path class="cls-1" d="M134.64,122.82c.05.1.05.23,0,.38-.03.09-.1.18-.21.26-.11.08-.22.15-.32.2-.12.11-.29.22-.49.32s-.38.19-.52.26c-.28.14-.5.25-.63.33-.14.08-.36.22-.66.42l-1.76,1.06.18.37c.11.22.25.43.42.61.17.18.39.35.66.49.18.11.38.2.59.28.21.07.4.09.56.06.14-.02.27-.04.4-.04s.24-.02.34-.04c.11-.02.2-.05.27-.11.55-.27.92-.53,1.11-.78s.43-.55.7-.92c.08-.04.15-.12.2-.25s.09-.21.12-.25c.08-.09.18-.27.29-.52s.21-.43.29-.52c.08.01.17.14.26.38s.21.46.36.64l.17.34.3.61c-.04.17-.08.3-.1.37-.03.08-.04.14-.05.2s-.03.13-.06.22-.08.23-.14.41c-.18.55-.45.98-.8,1.31-.16.23-.37.44-.6.62-.24.18-.43.34-.56.48-.09.07-.18.13-.25.18-.08.05-.16.1-.24.14l-.24.12c-.39.19-.77.37-1.14.54-.37.17-.81.26-1.32.25-.13.09-.35.15-.66.17-.31.02-.52,0-.65-.06-.28-.01-.56-.07-.82-.16-.26-.1-.53-.17-.81-.21-.39-.06-.7-.17-.93-.34-.23-.16-.46-.34-.68-.54-.19-.13-.38-.29-.58-.47-.19-.18-.38-.37-.58-.55-.11-.22-.22-.43-.33-.63-.11-.2-.22-.4-.32-.6l-.56-1.13c-.18-.37-.32-.84-.42-1.43-.1-.58-.13-1.11-.09-1.59.02-.11.05-.23.09-.35.02-.11.06-.23.11-.36.05-.13.1-.27.15-.42.05-.05.1-.11.15-.19.05-.08.13-.19.23-.34.04-.07.08-.18.12-.33.04-.15.13-.28.28-.4.18-.19.35-.38.51-.58.16-.19.29-.31.39-.36.14-.07.41-.19.79-.36.39-.17.76-.32,1.11-.47.19-.07.36-.12.5-.14.14-.02.24-.05.3-.08.17-.06.32-.11.44-.14.12-.03.25-.06.4-.08.43-.06.76-.07,1-.02.24.05.45.11.65.19.13.06.27.14.4.24.14.1.27.18.4.24.16.07.34.19.54.36.2.17.37.34.51.53.12.14.26.34.41.6s.28.48.38.69c.1.2.17.36.21.47.04.11.1.25.2.44ZM131.14,122.35s-.06-.12-.11-.23c-.06-.11-.11-.18-.17-.2-.3-.18-.6-.23-.92-.13-.32.1-.58.22-.79.37-.12.11-.19.21-.2.29s-.03.2-.05.37c-.02.06-.03.12-.03.17s-.01.11-.03.17c-.02.06-.02.13,0,.21s.04.15.05.22c.01.12.02.2.04.24.02.04.09.13.21.27.1,0,.28-.04.53-.13.25-.09.5-.19.75-.32.25-.13.49-.26.71-.41.22-.15.36-.26.42-.34.01-.03-.03-.08-.13-.15s-.19-.2-.3-.4Z"/>
    </g>
    <g>
      <path class="cls-2" d="M74.16,53.13s-2.04-2.9-1.02-3.22,3.87-1.45,4.68,0c.81,1.45.27,1.77.27,1.77,0,0,1.67-3.92,5.59-2.2,3.92,1.72,1.93,5.16,1.77,5.27s2.42-3.6,5.27-2.26c2.85,1.34,6.07,6.34,2.79,7.52,0,0,4.25,1.13,3.22,4.14s-3.76,7.63-6.23,3.39c0,0,1.02,4.89-3.12,5.21-4.14.32-6.39-2.47-5.64-4.73,0,0-3.98,4.19-6.39.7-2.42-3.49.7-5.05.7-5.05l-1.88-10.53Z"/>
      <path class="cls-2" d="M56.68,67.95l2.9-3.44s-3.87-5.91-7.25-4.94c-3.39.97-5.1,2.04-4.19,5.75,0,0-3.98-1.72-4.78,4.14-.81,5.86,3.39,3.33,3.39,3.33,0,0-6.22,1.34-3.49,5.75,2.74,4.41,6.55.91,6.55.91,0,0-5,3.92-.11,6.77,0,0,2.74,1.88,5.05-1.24,0,0,3.76,1.34,4.84.05s3.87-3.71.7-6.07c0,0,2.85,2.85,4.14-.11,1.29-2.96.86-3.49.86-3.49,0,0,3.39,2.47,3.55-4.41.16-6.88-1.45-1.83-1.45-1.83l-4.08-.32-6.61-.86Z"/>
      <path class="cls-3" d="M60.28,77.23s10.04,4.45,12.31,14.14c1.08,4.62,1.73,7.24,2.11,8.71.27,1.06,1.34,1.7,2.41,1.44,2.94-.72,8.25-2.4,8.32-5.18.09-3.84-3.58-6.55-4.54-11.78-.96-5.24.26-13.71,2.44-14.05s-1.31-4.36-1.31-4.36h-3.4s-2.97,7.59-2.44,10.13l.52,2.53s-2.71-11.52-6.2-13.27c-3.49-1.75-3.55,0-3.55,0,0,0,7.12,11.78,6.51,14.32s-11.44-8.99-12.75-7.94l-.44,5.32Z"/>
      <path class="cls-2" d="M71.6,68.06s-.79,5.24-5.41,1.75c0,0-2.71,6.59-6.55,1.2,0,0-.26-.41,1.31-.85,0,0-4.8,2.44-5.94-2.1-1.13-4.54,2.01-3.13,2.01-3.13,0,0-6.02-1.76-4.36-4.72,1.66-2.97,4.02-2.97,4.8-.79,0,0-3.93-4.36-.61-6.37,3.32-2.01,4.36.79,4.36.79,0,0-3.14-5.15,2.71-5.15s6.29,2.18,5.41,4.71c0,0,1.57-5.67,6.46-2.18,4.89,3.49.96,7.07.96,7.07,0,0,4.28-2.71,5.06,0s-.17,7.07-3.23,7.16c0,0,2.27,4.98-4.71,1.75,0,0-.87,1.05-2.27.87Z"/>
    </g>
  </g>
</svg>