<?xml version="1.0" encoding="UTF-8"?>
<svg id="Layer_2" data-name="Layer 2" xmlns="http://www.w3.org/2000/svg" xmlns:xlink="http://www.w3.org/1999/xlink" viewBox="0 0 1760.63 1350.86">
  <defs>
    <style>
      .cls-1 {
        clip-path: url(#clippath);
      }

      .cls-2 {
        fill: none;
        stroke: #804;
        stroke-miterlimit: 10;
        stroke-width: 13px;
      }

      .cls-3 {
        fill: #f9dc9c;
        stroke-width: 0px;
      }
    </style>
    <clipPath id="clippath">
      <path class="cls-2" d="M445.27,1146.83c-51.74,55.24-123.56,91.39-201.65,97.63-104.54,8.35-206.53-37.59-102.65-302.29,179.68-457.86-41.52-476.95-59.06-601.92-17.54-124.97,101.31-385.81,281.49-193.59,180.17,192.22,213.77,199.38,327.08,9.15,113.3-190.24,311.56,87.78,366.51,125.85,54.95,38.07,127.23-112.19,243.03-177.16,113.17-63.49,452.15-20.12,192.22,272.91-9.96,11.22-20.86,21.68-32.49,31.39-43.21,36.05-161.05,152.44,108.07,160.31,318.74,9.31,158.77,184.81,31.62,195.18-127.15,10.37-404.59,39.39-191.76,176.13,212.82,136.74,244.49,120.45,172.47,247.2-72.02,126.75-274.54,36.8-360.33-71.14-85.79-107.94-163.37-223.88-242.14,20.49-78.77,244.37-230.13,59.41-317.51-56.33-58.57-77.58-156.6,3.97-214.88,66.19Z"/>
    </clipPath>
  </defs>
  <g id="Layer_1-2" data-name="Layer 1">
    <path class="cls-3" d="M1123.7,1218.44c38.89,63.1,99.14,109.57,169.8,126.56,94.59,22.74,195.26-9.94,141.06-292.62-93.76-488.97,112.09-478.14,147.56-602.51,35.48-124.37-33.06-405.18-228.14-234.79-195.08,170.39-227.01,173.07-301.41-35.37-74.4-208.44-299.38,46.52-355.68,77.63-56.31,31.11-99.29-131.17-195.42-212.88-93.95-79.85-411.58-82.12-218.65,250.6,7.39,12.74,15.77,24.84,24.93,36.27,34.04,42.47,124.06,176.62-124,147.86-293.79-34.06-174.3,165.8-59.28,193.67,115.02,27.87,364.97,95.18,148.56,204.84-216.42,109.66-242.93,88.81-196.55,227.21,46.39,138.41,246.1,74.8,341.53-22.98,95.43-97.79,184.58-204.8,218.91,53.84,34.33,258.64,201.85,91.68,299.96-13.8,65.76-70.7,143.02,25.41,186.82,96.47Z"/>
    <g>
      <g class="cls-1">
        <image width="1920" height="1280" transform="translate(23.51 64.39) scale(.93)" xlink:href="../../../../../Users/lanumt1/Desktop/fruit-1095331_1920.jpg"/>
      </g>
      <path class="cls-2" d="M445.27,1146.83c-51.74,55.24-123.56,91.39-201.65,97.63-104.54,8.35-206.53-37.59-102.65-302.29,179.68-457.86-41.52-476.95-59.06-601.92-17.54-124.97,101.31-385.81,281.49-193.59,180.17,192.22,213.77,199.38,327.08,9.15,113.3-190.24,311.56,87.78,366.51,125.85,54.95,38.07,127.23-112.19,243.03-177.16,113.17-63.49,452.15-20.12,192.22,272.91-9.96,11.22-20.86,21.68-32.49,31.39-43.21,36.05-161.05,152.44,108.07,160.31,318.74,9.31,158.77,184.81,31.62,195.18-127.15,10.37-404.59,39.39-191.76,176.13,212.82,136.74,244.49,120.45,172.47,247.2-72.02,126.75-274.54,36.8-360.33-71.14-85.79-107.94-163.37-223.88-242.14,20.49-78.77,244.37-230.13,59.41-317.51-56.33-58.57-77.58-156.6,3.97-214.88,66.19Z"/>
    </g>
  </g>
</svg>