<?xml version="1.0" encoding="UTF-8"?>
<svg id="Layer_2" data-name="Layer 2" xmlns="http://www.w3.org/2000/svg" viewBox="0 0 710.85 42.76">
  <defs>
    <style>
      .cls-1 {
        fill: #4b673d;
        stroke-width: 0px;
      }
    </style>
  </defs>
  <g id="Layer_3" data-name="Layer 3">
    <g>
      <path class="cls-1" d="M699.04,42.76h-281.43v-2.5h281.43c5.13,0,9.31-3.89,9.31-8.67V11.17c0-4.78-4.18-8.67-9.31-8.67h-281.76V0h281.76c6.51,0,11.81,5.01,11.81,11.17v20.43c0,6.16-5.3,11.17-11.81,11.17Z"/>
      <path class="cls-1" d="M274.69,42.76H11.81c-6.51,0-11.81-5.01-11.81-11.17V11.17C0,5.01,5.3,0,11.81,0h263.12v2.5H11.81C6.68,2.5,2.5,6.39,2.5,11.17v20.43c0,4.78,4.18,8.67,9.31,8.67h262.88v2.5Z"/>
    </g>
  </g>
</svg>