<?xml version="1.0" encoding="UTF-8"?>
<svg id="Layer_2" data-name="Layer 2" xmlns="http://www.w3.org/2000/svg" viewBox="0 0 727.55 42.26">
  <defs>
    <style>
      .cls-1 {
        fill: #4b673d;
        stroke-width: 0px;
      }
    </style>
  </defs>
  <g id="Layer_3" data-name="Layer 3">
    <g>
      <path class="cls-1" d="M715.99,42.26h-307.37v-2h307.37c5.27,0,9.56-4,9.56-8.92V10.92c0-4.92-4.29-8.92-9.56-8.92h-307.37V0h307.37c6.37,0,11.56,4.9,11.56,10.92v20.43c0,6.02-5.19,10.92-11.56,10.92Z"/>
      <path class="cls-1" d="M318.62,42.26H11.56c-6.37,0-11.56-4.9-11.56-10.92V10.92C0,4.9,5.19,0,11.56,0h307.06v2H11.56C6.29,2,2,6,2,10.92v20.43c0,4.92,4.29,8.92,9.56,8.92h307.06v2Z"/>
    </g>
  </g>
</svg>