<?xml version="1.0" encoding="UTF-8"?>
<svg id="Layer_2" data-name="Layer 2" xmlns="http://www.w3.org/2000/svg" viewBox="0 0 178.26 125.96">
  <defs>
    <style>
      .cls-1 {
        fill: #fcf49d;
        stroke: #48673c;
        stroke-miterlimit: 10;
        stroke-width: 2px;
      }

      .cls-2 {
        fill: #4a673d;
        font-family: KirangHaerang-Regular, 'Kirang Haerang';
        font-size: 15px;
      }

      .cls-3 {
        fill: #506741;
      }

      .cls-3, .cls-4, .cls-5, .cls-6, .cls-7 {
        stroke-width: 0px;
      }

      .cls-4 {
        fill: #7c2346;
      }

      .cls-5 {
        fill: #513921;
      }

      .cls-6 {
        fill: #e07364;
      }

      .cls-7 {
        fill: #da4635;
      }
    </style>
  </defs>
  <g id="Layer_1-2" data-name="Layer 1">
    <g id="Layer_1-2" data-name="Layer 1-2">
      <circle class="cls-4" cx="38.96" cy="69.51" r="38.96"/>
      <g>
        <path class="cls-5" d="M63.14,22.7s-11.79-2.41-20.28-3.04-15.34.76-19.01,4.31c-3.68,3.55-9.25,15.34-7.6,24.72s5.07,24.72,27.25,31.18,40.18,5.07,54.88-4.56,17.62-21.29,17.36-29.15c-.25-7.86-2.25-19.73-9.13-23.7-6.59-3.8-12.93-3.93-20.66-2.41s-18.12,2.41-19.27,2.66c-1.13.24-3.54,0-3.54,0h0Z"/>
        <path class="cls-7" d="M63.34,25.34s-10.91-2.19-18.77-2.76c-7.86-.58-14.19.69-17.6,3.91-3.4,3.22-8.56,13.93-7.04,22.45,1.53,8.52,4.69,22.45,25.22,28.32,20.53,5.87,37.19,4.61,50.79-4.14s16.31-19.34,16.07-26.48c-.23-7.14-2.08-17.93-8.45-21.53-6.1-3.45-11.97-3.57-19.12-2.19-7.16,1.38-16.78,2.19-17.83,2.42s-3.27,0-3.27,0Z"/>
        <path class="cls-3" d="M61.9,17.55s-2.27-14.93-7.86-15.13c0,0-4.48.52-2.08,4.67,2.4,4.15,9.16,10.39,9.94,10.46Z"/>
        <path class="cls-3" d="M70.42,18.47s3.44-14.71,9.03-14.46c0,0,4.43.87,1.7,4.82-2.72,3.95-9.94,9.63-10.73,9.64Z"/>
        <path class="cls-6" d="M69.5,80.85c14.03.01,20.07-3.8,28.64-9.22,7.94-5.02,15.37-16.3,15.37-26.21,0-6.79-1.98-17.04-8.03-20.47-5.8-3.28-11.34-4.18-18.14-2.86-2.69.52-12.44,2.34-15.21,2.68,0,0,5.6,3.57,11.3,5.42,5.7,1.85,9.03,6.86,11,14.85,1.89,7.61,4.46,15.8-10.78,25.74,0,0-8.28,4.47-10.93,7.09-1.17,1.17-3.22,2.98-3.22,2.98Z"/>
        <path class="cls-3" d="M65.09,26.53c-7.23-.2-15.83,2.15-24.98-14.58,0,0-3.62-6.78,2.37-2.6,5.99,4.18,19.22,12.32,20.91,10.74,1.7-1.58-1.92-19.44-1.47-19.56.45-.11,9.45-1.13,9.07,0-.37,1.13-2.41,18.99-1.84,19.1.57.11,14.13-4.41,20.57-11.3,0,0,3.28-.68.9,3.17-2.37,3.84-14.08,13.99-21.7,15.12-1.06.16-2.7-.06-3.83-.09Z"/>
      </g>
    </g>
    <rect class="cls-1" x="72.34" y="26.68" width="104.92" height="49.22" rx="12" ry="12"/>
    <text class="cls-2" transform="translate(77.91 46.16)"><tspan x="0" y="0">Bought too much </tspan><tspan x="7.16" y="16" xml:space="preserve">of something?  </tspan></text>
  </g>
</svg>